%TF.GenerationSoftware,KiCad,Pcbnew,9.0.3*%
%TF.CreationDate,2025-08-01T20:51:34+05:30*%
%TF.ProjectId,BQ27621-G1_Breakout_Board_v1,42513237-3632-4312-9d47-315f42726561,rev?*%
%TF.SameCoordinates,Original*%
%TF.FileFunction,Copper,L2,Bot*%
%TF.FilePolarity,Positive*%
%FSLAX46Y46*%
G04 Gerber Fmt 4.6, Leading zero omitted, Abs format (unit mm)*
G04 Created by KiCad (PCBNEW 9.0.3) date 2025-08-01 20:51:34*
%MOMM*%
%LPD*%
G01*
G04 APERTURE LIST*
%TA.AperFunction,Conductor*%
%ADD10C,0.100000*%
%TD*%
%TA.AperFunction,ComponentPad*%
%ADD11R,1.700000X1.700000*%
%TD*%
%TA.AperFunction,ComponentPad*%
%ADD12C,1.700000*%
%TD*%
%TA.AperFunction,ViaPad*%
%ADD13C,0.600000*%
%TD*%
%TA.AperFunction,Conductor*%
%ADD14C,0.200000*%
%TD*%
%TA.AperFunction,Conductor*%
%ADD15C,1.000000*%
%TD*%
G04 APERTURE END LIST*
D10*
%TO.N,VDDEx*%
X136200000Y-92450000D02*
X134600000Y-92450000D01*
X134600000Y-91650000D01*
X136200000Y-91650000D01*
X136200000Y-92450000D01*
%TA.AperFunction,Conductor*%
G36*
X136200000Y-92450000D02*
G01*
X134600000Y-92450000D01*
X134600000Y-91650000D01*
X136200000Y-91650000D01*
X136200000Y-92450000D01*
G37*
%TD.AperFunction*%
%TD*%
D11*
%TO.P,J1,1,Pin_1*%
%TO.N,VDDE*%
X146780000Y-83550000D03*
D12*
%TO.P,J1,2,Pin_2*%
%TO.N,/GPOUT*%
X144240000Y-83550000D03*
%TO.P,J1,3,Pin_3*%
%TO.N,/SCL*%
X141700000Y-83550000D03*
%TO.P,J1,4,Pin_4*%
%TO.N,/SDA*%
X139160000Y-83550000D03*
%TO.P,J1,5,Pin_5*%
%TO.N,GNDREF*%
X136620000Y-83550000D03*
%TD*%
D11*
%TO.P,J2,1,Pin_1*%
%TO.N,+BATT*%
X140800000Y-106950000D03*
D12*
%TO.P,J2,2,Pin_2*%
%TO.N,/BIN*%
X138260000Y-106950000D03*
%TO.P,J2,3,Pin_3*%
%TO.N,GNDREF*%
X135720000Y-106950000D03*
%TD*%
D13*
%TO.N,GNDREF*%
X138200000Y-102050000D03*
X138010000Y-104660000D03*
X137700000Y-99350000D03*
X143950000Y-94550000D03*
X138187500Y-103350000D03*
X138400000Y-99350000D03*
X137200000Y-99850000D03*
X138400000Y-99950000D03*
X143950000Y-95800000D03*
X133450000Y-85550000D03*
X138350000Y-98700000D03*
X134200000Y-86300000D03*
X134200000Y-83550000D03*
X137100000Y-102150000D03*
X133450000Y-84300000D03*
X134900000Y-104650000D03*
X134950000Y-103500000D03*
X135200000Y-83550000D03*
X135200000Y-86300000D03*
%TO.N,/GPOUT*%
X138700000Y-90050000D03*
%TO.N,/SCL*%
X139700000Y-94550000D03*
%TO.N,/SDA*%
X138500000Y-92250000D03*
%TO.N,/BIN*%
X136500000Y-97150000D03*
%TO.N,VDDEx*%
X135800000Y-92150000D03*
X142500000Y-91750000D03*
X142500000Y-93350000D03*
X135000000Y-92150000D03*
X142500000Y-92550000D03*
%TD*%
D14*
%TO.N,/GPOUT*%
X144300000Y-84550000D02*
X144240000Y-84490000D01*
X144240000Y-84490000D02*
X144240000Y-83550000D01*
X138700000Y-90050000D02*
X138800000Y-90050000D01*
X138800000Y-90050000D02*
X144300000Y-84550000D01*
%TO.N,/SCL*%
X139700000Y-92177991D02*
X137698000Y-90175991D01*
X139700000Y-94550000D02*
X139700000Y-92177991D01*
X137698000Y-90175991D02*
X137698000Y-87552000D01*
X137698000Y-87552000D02*
X141700000Y-83550000D01*
%TO.N,/SDA*%
X137100000Y-90850000D02*
X137100000Y-85610000D01*
X138500000Y-92250000D02*
X137100000Y-90850000D01*
X137100000Y-85610000D02*
X139160000Y-83550000D01*
%TO.N,/BIN*%
X136400000Y-105090000D02*
X138260000Y-106950000D01*
X136400000Y-97250000D02*
X136400000Y-105090000D01*
X136500000Y-97150000D02*
X136400000Y-97250000D01*
D15*
%TO.N,VDDEx*%
X135000000Y-94050000D02*
X136700000Y-95750000D01*
X136700000Y-95750000D02*
X141100000Y-95750000D01*
D14*
X141200000Y-95250000D02*
X142500000Y-93950000D01*
D15*
X142500000Y-94350000D02*
X142500000Y-91750000D01*
X141100000Y-95750000D02*
X142500000Y-94350000D01*
D14*
X137500000Y-95250000D02*
X141200000Y-95250000D01*
D15*
X135800000Y-93550000D02*
X137500000Y-95250000D01*
D14*
X142500000Y-93950000D02*
X142500000Y-93350000D01*
D15*
X135800000Y-92150000D02*
X135800000Y-93550000D01*
X135000000Y-92150000D02*
X135000000Y-94050000D01*
D14*
X135000000Y-92150000D02*
X135000000Y-91850000D01*
%TD*%
%TA.AperFunction,Conductor*%
%TO.N,GNDREF*%
G36*
X156642539Y-80070185D02*
G01*
X156688294Y-80122989D01*
X156699500Y-80174500D01*
X156699500Y-91176000D01*
X156679815Y-91243039D01*
X156627011Y-91288794D01*
X156575500Y-91300000D01*
X143021308Y-91300000D01*
X142954269Y-91280315D01*
X142933627Y-91263681D01*
X142914672Y-91244726D01*
X142914668Y-91244723D01*
X142808133Y-91173538D01*
X142808124Y-91173533D01*
X142689744Y-91124499D01*
X142689738Y-91124497D01*
X142564071Y-91099500D01*
X142564069Y-91099500D01*
X142435931Y-91099500D01*
X142435929Y-91099500D01*
X142310261Y-91124497D01*
X142310255Y-91124499D01*
X142191875Y-91173533D01*
X142191866Y-91173538D01*
X142085331Y-91244723D01*
X142085327Y-91244726D01*
X141994726Y-91335327D01*
X141994723Y-91335331D01*
X141923538Y-91441866D01*
X141923533Y-91441875D01*
X141874499Y-91560255D01*
X141874497Y-91560261D01*
X141849500Y-91685928D01*
X141849500Y-94029192D01*
X141829815Y-94096231D01*
X141813181Y-94116873D01*
X140966873Y-94963181D01*
X140905550Y-94996666D01*
X140879192Y-94999500D01*
X140175447Y-94999500D01*
X140108408Y-94979815D01*
X140062653Y-94927011D01*
X140052709Y-94857853D01*
X140068060Y-94813499D01*
X140119799Y-94723886D01*
X140150500Y-94609309D01*
X140150500Y-94490691D01*
X140119799Y-94376114D01*
X140060489Y-94273387D01*
X139986818Y-94199716D01*
X139953334Y-94138392D01*
X139950500Y-94112035D01*
X139950500Y-92242261D01*
X139950501Y-92242252D01*
X139950501Y-92128165D01*
X139950500Y-92128161D01*
X139912364Y-92036095D01*
X139912363Y-92036093D01*
X139834832Y-91958562D01*
X139834825Y-91958556D01*
X138588451Y-90712181D01*
X138554966Y-90650858D01*
X138559950Y-90581166D01*
X138601822Y-90525233D01*
X138667286Y-90500816D01*
X138676132Y-90500500D01*
X138759306Y-90500500D01*
X138759309Y-90500500D01*
X138873886Y-90469799D01*
X138976613Y-90410489D01*
X139060489Y-90326613D01*
X139119799Y-90223886D01*
X139150500Y-90109309D01*
X139150500Y-90105121D01*
X139151499Y-90101717D01*
X139151561Y-90101249D01*
X139151634Y-90101258D01*
X139170185Y-90038082D01*
X139186814Y-90017445D01*
X144441895Y-84762364D01*
X144441897Y-84762364D01*
X144512364Y-84691897D01*
X144537217Y-84631897D01*
X144550501Y-84599827D01*
X144550501Y-84587173D01*
X144570186Y-84520134D01*
X144622990Y-84474379D01*
X144627049Y-84472612D01*
X144713907Y-84436635D01*
X144713907Y-84436634D01*
X144713914Y-84436632D01*
X144746555Y-84414822D01*
X145779499Y-84414822D01*
X145788231Y-84458717D01*
X145788234Y-84458724D01*
X145821495Y-84508503D01*
X145821496Y-84508504D01*
X145871278Y-84541767D01*
X145871281Y-84541767D01*
X145871282Y-84541768D01*
X145915177Y-84550500D01*
X145915180Y-84550500D01*
X147644822Y-84550500D01*
X147688717Y-84541768D01*
X147688717Y-84541767D01*
X147688722Y-84541767D01*
X147738504Y-84508504D01*
X147771767Y-84458722D01*
X147780500Y-84414820D01*
X147780500Y-82843713D01*
X152849500Y-82843713D01*
X152849500Y-83056287D01*
X152851421Y-83068414D01*
X152882753Y-83266239D01*
X152948444Y-83468414D01*
X153044951Y-83657820D01*
X153169890Y-83829786D01*
X153320213Y-83980109D01*
X153492179Y-84105048D01*
X153492181Y-84105049D01*
X153492184Y-84105051D01*
X153681588Y-84201557D01*
X153883757Y-84267246D01*
X154093713Y-84300500D01*
X154093714Y-84300500D01*
X154306286Y-84300500D01*
X154306287Y-84300500D01*
X154516243Y-84267246D01*
X154718412Y-84201557D01*
X154907816Y-84105051D01*
X154972341Y-84058171D01*
X155079786Y-83980109D01*
X155079788Y-83980106D01*
X155079792Y-83980104D01*
X155230104Y-83829792D01*
X155230106Y-83829788D01*
X155230109Y-83829786D01*
X155355048Y-83657820D01*
X155355047Y-83657820D01*
X155355051Y-83657816D01*
X155451557Y-83468412D01*
X155517246Y-83266243D01*
X155550500Y-83056287D01*
X155550500Y-82843713D01*
X155517246Y-82633757D01*
X155451557Y-82431588D01*
X155355051Y-82242184D01*
X155355049Y-82242181D01*
X155355048Y-82242179D01*
X155230109Y-82070213D01*
X155079786Y-81919890D01*
X154907820Y-81794951D01*
X154718414Y-81698444D01*
X154718413Y-81698443D01*
X154718412Y-81698443D01*
X154516243Y-81632754D01*
X154516241Y-81632753D01*
X154516240Y-81632753D01*
X154354957Y-81607208D01*
X154306287Y-81599500D01*
X154093713Y-81599500D01*
X154045042Y-81607208D01*
X153883760Y-81632753D01*
X153681585Y-81698444D01*
X153492179Y-81794951D01*
X153320213Y-81919890D01*
X153169890Y-82070213D01*
X153044951Y-82242179D01*
X152948444Y-82431585D01*
X152882753Y-82633760D01*
X152849500Y-82843713D01*
X147780500Y-82843713D01*
X147780500Y-82685180D01*
X147780500Y-82685177D01*
X147771768Y-82641282D01*
X147771767Y-82641281D01*
X147771767Y-82641278D01*
X147738504Y-82591496D01*
X147733197Y-82587950D01*
X147688724Y-82558234D01*
X147688717Y-82558231D01*
X147644822Y-82549500D01*
X147644820Y-82549500D01*
X145915180Y-82549500D01*
X145915178Y-82549500D01*
X145871282Y-82558231D01*
X145871275Y-82558234D01*
X145821496Y-82591495D01*
X145821495Y-82591496D01*
X145788234Y-82641275D01*
X145788231Y-82641282D01*
X145779500Y-82685177D01*
X145779500Y-82685180D01*
X145779500Y-84414820D01*
X145779500Y-84414822D01*
X145779499Y-84414822D01*
X144746555Y-84414822D01*
X144877782Y-84327139D01*
X145017139Y-84187782D01*
X145126632Y-84023914D01*
X145202051Y-83841835D01*
X145214632Y-83778582D01*
X145240500Y-83648543D01*
X145240500Y-83451456D01*
X145202052Y-83258170D01*
X145202051Y-83258169D01*
X145202051Y-83258165D01*
X145201908Y-83257820D01*
X145126635Y-83076092D01*
X145126628Y-83076079D01*
X145017139Y-82912218D01*
X145017136Y-82912214D01*
X144877785Y-82772863D01*
X144877782Y-82772861D01*
X144713920Y-82663371D01*
X144713907Y-82663364D01*
X144531839Y-82587950D01*
X144531829Y-82587947D01*
X144338543Y-82549500D01*
X144338541Y-82549500D01*
X144141459Y-82549500D01*
X144141457Y-82549500D01*
X143948170Y-82587947D01*
X143948160Y-82587950D01*
X143766092Y-82663364D01*
X143766079Y-82663371D01*
X143602218Y-82772860D01*
X143602214Y-82772863D01*
X143462863Y-82912214D01*
X143462860Y-82912218D01*
X143353371Y-83076079D01*
X143353364Y-83076092D01*
X143277950Y-83258160D01*
X143277947Y-83258170D01*
X143239500Y-83451456D01*
X143239500Y-83451459D01*
X143239500Y-83648541D01*
X143239500Y-83648543D01*
X143239499Y-83648543D01*
X143277947Y-83841829D01*
X143277950Y-83841839D01*
X143353364Y-84023907D01*
X143353371Y-84023920D01*
X143462860Y-84187781D01*
X143462863Y-84187785D01*
X143602214Y-84327136D01*
X143602218Y-84327139D01*
X143766079Y-84436628D01*
X143766083Y-84436630D01*
X143766086Y-84436632D01*
X143778318Y-84441698D01*
X143801830Y-84451438D01*
X143856233Y-84495279D01*
X143878298Y-84561574D01*
X143861019Y-84629273D01*
X143842058Y-84653680D01*
X138917924Y-89577813D01*
X138856601Y-89611298D01*
X138798151Y-89609907D01*
X138759310Y-89599500D01*
X138759309Y-89599500D01*
X138640691Y-89599500D01*
X138526114Y-89630201D01*
X138526112Y-89630201D01*
X138526112Y-89630202D01*
X138423387Y-89689511D01*
X138423384Y-89689513D01*
X138339513Y-89773384D01*
X138339511Y-89773387D01*
X138280201Y-89876114D01*
X138249500Y-89990691D01*
X138249500Y-89990693D01*
X138249500Y-90073868D01*
X138243261Y-90095113D01*
X138241682Y-90117202D01*
X138233609Y-90127985D01*
X138229815Y-90140907D01*
X138213081Y-90155406D01*
X138199810Y-90173135D01*
X138187189Y-90177842D01*
X138177011Y-90186662D01*
X138155093Y-90189813D01*
X138134346Y-90197552D01*
X138121185Y-90194689D01*
X138107853Y-90196606D01*
X138087709Y-90187406D01*
X138066073Y-90182700D01*
X138048347Y-90169431D01*
X138044297Y-90167581D01*
X138037819Y-90161549D01*
X137984819Y-90108549D01*
X137951334Y-90047226D01*
X137948500Y-90020868D01*
X137948500Y-87707122D01*
X137968185Y-87640083D01*
X137984819Y-87619441D01*
X138358384Y-87245876D01*
X141126165Y-84478094D01*
X141187486Y-84444611D01*
X141257178Y-84449595D01*
X141261260Y-84451201D01*
X141408165Y-84512051D01*
X141408169Y-84512051D01*
X141408170Y-84512052D01*
X141601456Y-84550500D01*
X141601459Y-84550500D01*
X141798543Y-84550500D01*
X141962209Y-84517944D01*
X141991835Y-84512051D01*
X142173914Y-84436632D01*
X142337782Y-84327139D01*
X142477139Y-84187782D01*
X142586632Y-84023914D01*
X142662051Y-83841835D01*
X142674632Y-83778582D01*
X142700500Y-83648543D01*
X142700500Y-83451456D01*
X142662052Y-83258170D01*
X142662051Y-83258169D01*
X142662051Y-83258165D01*
X142661908Y-83257820D01*
X142586635Y-83076092D01*
X142586628Y-83076079D01*
X142477139Y-82912218D01*
X142477136Y-82912214D01*
X142337785Y-82772863D01*
X142337781Y-82772860D01*
X142173920Y-82663371D01*
X142173907Y-82663364D01*
X141991839Y-82587950D01*
X141991829Y-82587947D01*
X141798543Y-82549500D01*
X141798541Y-82549500D01*
X141601459Y-82549500D01*
X141601457Y-82549500D01*
X141408170Y-82587947D01*
X141408160Y-82587950D01*
X141226092Y-82663364D01*
X141226079Y-82663371D01*
X141062218Y-82772860D01*
X141062214Y-82772863D01*
X140922863Y-82912214D01*
X140922860Y-82912218D01*
X140813371Y-83076079D01*
X140813364Y-83076092D01*
X140737950Y-83258160D01*
X140737947Y-83258170D01*
X140699500Y-83451456D01*
X140699500Y-83451459D01*
X140699500Y-83648541D01*
X140699500Y-83648543D01*
X140699499Y-83648543D01*
X140737947Y-83841829D01*
X140737950Y-83841839D01*
X140798782Y-83988702D01*
X140806251Y-84058171D01*
X140774975Y-84120650D01*
X140771902Y-84123835D01*
X137562181Y-87333557D01*
X137500858Y-87367042D01*
X137431166Y-87362058D01*
X137375233Y-87320186D01*
X137350816Y-87254722D01*
X137350500Y-87245876D01*
X137350500Y-85765122D01*
X137370185Y-85698083D01*
X137386819Y-85677441D01*
X137666625Y-85397635D01*
X138586165Y-84478094D01*
X138647486Y-84444611D01*
X138717178Y-84449595D01*
X138721260Y-84451201D01*
X138868165Y-84512051D01*
X138868169Y-84512051D01*
X138868170Y-84512052D01*
X139061456Y-84550500D01*
X139061459Y-84550500D01*
X139258543Y-84550500D01*
X139422209Y-84517944D01*
X139451835Y-84512051D01*
X139633914Y-84436632D01*
X139797782Y-84327139D01*
X139937139Y-84187782D01*
X140046632Y-84023914D01*
X140122051Y-83841835D01*
X140134632Y-83778582D01*
X140160500Y-83648543D01*
X140160500Y-83451456D01*
X140122052Y-83258170D01*
X140122051Y-83258169D01*
X140122051Y-83258165D01*
X140121908Y-83257820D01*
X140046635Y-83076092D01*
X140046628Y-83076079D01*
X139937139Y-82912218D01*
X139937136Y-82912214D01*
X139797785Y-82772863D01*
X139797781Y-82772860D01*
X139633920Y-82663371D01*
X139633907Y-82663364D01*
X139451839Y-82587950D01*
X139451829Y-82587947D01*
X139258543Y-82549500D01*
X139258541Y-82549500D01*
X139061459Y-82549500D01*
X139061457Y-82549500D01*
X138868170Y-82587947D01*
X138868160Y-82587950D01*
X138686092Y-82663364D01*
X138686079Y-82663371D01*
X138522218Y-82772860D01*
X138522214Y-82772863D01*
X138382863Y-82912214D01*
X138382860Y-82912218D01*
X138273371Y-83076079D01*
X138273364Y-83076092D01*
X138197950Y-83258160D01*
X138197947Y-83258170D01*
X138159500Y-83451456D01*
X138159500Y-83451459D01*
X138159500Y-83648541D01*
X138159500Y-83648543D01*
X138159499Y-83648543D01*
X138197947Y-83841829D01*
X138197950Y-83841839D01*
X138258782Y-83988702D01*
X138266251Y-84058171D01*
X138234975Y-84120650D01*
X138231902Y-84123835D01*
X136940662Y-85415076D01*
X136940661Y-85415076D01*
X136940662Y-85415077D01*
X136887636Y-85468103D01*
X136849500Y-85560170D01*
X136849500Y-90899829D01*
X136887636Y-90991897D01*
X138013181Y-92117442D01*
X138046666Y-92178765D01*
X138049500Y-92205123D01*
X138049500Y-92309309D01*
X138080201Y-92423886D01*
X138139511Y-92526613D01*
X138223387Y-92610489D01*
X138326114Y-92669799D01*
X138440691Y-92700500D01*
X138440694Y-92700500D01*
X138559306Y-92700500D01*
X138559309Y-92700500D01*
X138673886Y-92669799D01*
X138776613Y-92610489D01*
X138860489Y-92526613D01*
X138919799Y-92423886D01*
X138950500Y-92309309D01*
X138950500Y-92190691D01*
X138920957Y-92080435D01*
X138922620Y-92010589D01*
X138961782Y-91952726D01*
X139026010Y-91925222D01*
X139094913Y-91936808D01*
X139128413Y-91960664D01*
X139413181Y-92245432D01*
X139446666Y-92306755D01*
X139449500Y-92333113D01*
X139449500Y-94112035D01*
X139429815Y-94179074D01*
X139413182Y-94199716D01*
X139339511Y-94273387D01*
X139298891Y-94343743D01*
X139280201Y-94376114D01*
X139249500Y-94490691D01*
X139249500Y-94609309D01*
X139280201Y-94723886D01*
X139303747Y-94764669D01*
X139331940Y-94813499D01*
X139348413Y-94881399D01*
X139325561Y-94947426D01*
X139270640Y-94990617D01*
X139224553Y-94999500D01*
X138181249Y-94999500D01*
X138114210Y-94979815D01*
X138078146Y-94944390D01*
X138076466Y-94941876D01*
X138076465Y-94941873D01*
X138005277Y-94835331D01*
X138005275Y-94835329D01*
X138005273Y-94835326D01*
X136486819Y-93316872D01*
X136453334Y-93255549D01*
X136450500Y-93229191D01*
X136450500Y-92085928D01*
X136425502Y-91960261D01*
X136425501Y-91960260D01*
X136425501Y-91960256D01*
X136414939Y-91934756D01*
X136405500Y-91887304D01*
X136405500Y-91649997D01*
X136405499Y-91649995D01*
X136400348Y-91604271D01*
X136360666Y-91521873D01*
X136289163Y-91464851D01*
X136200004Y-91444500D01*
X136200000Y-91444500D01*
X134600000Y-91444500D01*
X134599995Y-91444500D01*
X134554271Y-91449651D01*
X134471873Y-91489333D01*
X134414851Y-91560836D01*
X134394500Y-91649995D01*
X134394500Y-91887304D01*
X134385061Y-91934756D01*
X134374500Y-91960251D01*
X134374497Y-91960261D01*
X134349500Y-92085928D01*
X134349500Y-92085931D01*
X134349500Y-94114069D01*
X134359107Y-94162364D01*
X134374499Y-94239744D01*
X134423535Y-94358127D01*
X134494723Y-94464669D01*
X134494726Y-94464673D01*
X136285326Y-96255273D01*
X136285329Y-96255275D01*
X136285331Y-96255277D01*
X136391873Y-96326465D01*
X136510256Y-96375501D01*
X136510260Y-96375501D01*
X136510261Y-96375502D01*
X136635928Y-96400500D01*
X136635931Y-96400500D01*
X141164071Y-96400500D01*
X141248615Y-96383682D01*
X141289744Y-96375501D01*
X141408127Y-96326465D01*
X141514669Y-96255277D01*
X143005277Y-94764669D01*
X143076465Y-94658127D01*
X143125501Y-94539744D01*
X143133949Y-94497273D01*
X143150500Y-94414069D01*
X143150500Y-94410315D01*
X143152310Y-94400809D01*
X143165804Y-94374486D01*
X143176879Y-94347060D01*
X143181565Y-94343743D01*
X143184185Y-94338634D01*
X143209766Y-94323786D01*
X143233913Y-94306700D01*
X143241340Y-94305462D01*
X143244615Y-94303562D01*
X143251005Y-94303851D01*
X143274122Y-94300000D01*
X156575500Y-94300000D01*
X156642539Y-94319685D01*
X156688294Y-94372489D01*
X156699500Y-94424000D01*
X156699500Y-111925500D01*
X156679815Y-111992539D01*
X156627011Y-112038294D01*
X156575500Y-112049500D01*
X124324500Y-112049500D01*
X124257461Y-112029815D01*
X124211706Y-111977011D01*
X124200500Y-111925500D01*
X124200500Y-109443713D01*
X125349500Y-109443713D01*
X125349500Y-109656286D01*
X125382753Y-109866239D01*
X125448444Y-110068414D01*
X125544951Y-110257820D01*
X125669890Y-110429786D01*
X125820213Y-110580109D01*
X125992179Y-110705048D01*
X125992181Y-110705049D01*
X125992184Y-110705051D01*
X126181588Y-110801557D01*
X126383757Y-110867246D01*
X126593713Y-110900500D01*
X126593714Y-110900500D01*
X126806286Y-110900500D01*
X126806287Y-110900500D01*
X127016243Y-110867246D01*
X127218412Y-110801557D01*
X127407816Y-110705051D01*
X127429789Y-110689086D01*
X127579786Y-110580109D01*
X127579788Y-110580106D01*
X127579792Y-110580104D01*
X127730104Y-110429792D01*
X127730106Y-110429788D01*
X127730109Y-110429786D01*
X127855048Y-110257820D01*
X127855047Y-110257820D01*
X127855051Y-110257816D01*
X127951557Y-110068412D01*
X128017246Y-109866243D01*
X128050500Y-109656287D01*
X128050500Y-109443713D01*
X152849500Y-109443713D01*
X152849500Y-109656286D01*
X152882753Y-109866239D01*
X152948444Y-110068414D01*
X153044951Y-110257820D01*
X153169890Y-110429786D01*
X153320213Y-110580109D01*
X153492179Y-110705048D01*
X153492181Y-110705049D01*
X153492184Y-110705051D01*
X153681588Y-110801557D01*
X153883757Y-110867246D01*
X154093713Y-110900500D01*
X154093714Y-110900500D01*
X154306286Y-110900500D01*
X154306287Y-110900500D01*
X154516243Y-110867246D01*
X154718412Y-110801557D01*
X154907816Y-110705051D01*
X154929789Y-110689086D01*
X155079786Y-110580109D01*
X155079788Y-110580106D01*
X155079792Y-110580104D01*
X155230104Y-110429792D01*
X155230106Y-110429788D01*
X155230109Y-110429786D01*
X155355048Y-110257820D01*
X155355047Y-110257820D01*
X155355051Y-110257816D01*
X155451557Y-110068412D01*
X155517246Y-109866243D01*
X155550500Y-109656287D01*
X155550500Y-109443713D01*
X155517246Y-109233757D01*
X155451557Y-109031588D01*
X155355051Y-108842184D01*
X155355049Y-108842181D01*
X155355048Y-108842179D01*
X155230109Y-108670213D01*
X155079786Y-108519890D01*
X154907820Y-108394951D01*
X154718414Y-108298444D01*
X154718413Y-108298443D01*
X154718412Y-108298443D01*
X154516243Y-108232754D01*
X154516241Y-108232753D01*
X154516240Y-108232753D01*
X154354957Y-108207208D01*
X154306287Y-108199500D01*
X154093713Y-108199500D01*
X154045042Y-108207208D01*
X153883760Y-108232753D01*
X153681585Y-108298444D01*
X153492179Y-108394951D01*
X153320213Y-108519890D01*
X153169890Y-108670213D01*
X153044951Y-108842179D01*
X152948444Y-109031585D01*
X152882753Y-109233760D01*
X152849500Y-109443713D01*
X128050500Y-109443713D01*
X128017246Y-109233757D01*
X127951557Y-109031588D01*
X127855051Y-108842184D01*
X127855049Y-108842181D01*
X127855048Y-108842179D01*
X127730109Y-108670213D01*
X127579786Y-108519890D01*
X127407820Y-108394951D01*
X127218414Y-108298444D01*
X127218413Y-108298443D01*
X127218412Y-108298443D01*
X127016243Y-108232754D01*
X127016241Y-108232753D01*
X127016240Y-108232753D01*
X126854957Y-108207208D01*
X126806287Y-108199500D01*
X126593713Y-108199500D01*
X126545042Y-108207208D01*
X126383760Y-108232753D01*
X126181585Y-108298444D01*
X125992179Y-108394951D01*
X125820213Y-108519890D01*
X125669890Y-108670213D01*
X125544951Y-108842179D01*
X125448444Y-109031585D01*
X125382753Y-109233760D01*
X125349500Y-109443713D01*
X124200500Y-109443713D01*
X124200500Y-97090691D01*
X136049500Y-97090691D01*
X136049500Y-97209309D01*
X136080201Y-97323886D01*
X136132887Y-97415140D01*
X136149500Y-97477140D01*
X136149500Y-105139829D01*
X136187636Y-105231897D01*
X137331903Y-106376164D01*
X137365388Y-106437487D01*
X137360404Y-106507179D01*
X137358783Y-106511297D01*
X137297950Y-106658160D01*
X137297947Y-106658170D01*
X137259500Y-106851456D01*
X137259500Y-106851459D01*
X137259500Y-107048541D01*
X137259500Y-107048543D01*
X137259499Y-107048543D01*
X137297947Y-107241829D01*
X137297950Y-107241839D01*
X137373364Y-107423907D01*
X137373371Y-107423920D01*
X137482860Y-107587781D01*
X137482863Y-107587785D01*
X137622214Y-107727136D01*
X137622218Y-107727139D01*
X137786079Y-107836628D01*
X137786092Y-107836635D01*
X137968160Y-107912049D01*
X137968165Y-107912051D01*
X137968169Y-107912051D01*
X137968170Y-107912052D01*
X138161456Y-107950500D01*
X138161459Y-107950500D01*
X138358543Y-107950500D01*
X138488582Y-107924632D01*
X138551835Y-107912051D01*
X138733914Y-107836632D01*
X138766555Y-107814822D01*
X139799499Y-107814822D01*
X139808231Y-107858717D01*
X139808232Y-107858721D01*
X139808233Y-107858722D01*
X139841496Y-107908504D01*
X139891278Y-107941767D01*
X139891281Y-107941767D01*
X139891282Y-107941768D01*
X139935177Y-107950500D01*
X139935180Y-107950500D01*
X141664822Y-107950500D01*
X141708717Y-107941768D01*
X141708717Y-107941767D01*
X141708722Y-107941767D01*
X141758504Y-107908504D01*
X141791767Y-107858722D01*
X141800500Y-107814820D01*
X141800500Y-106085180D01*
X141800500Y-106085177D01*
X141791768Y-106041282D01*
X141791767Y-106041281D01*
X141791767Y-106041278D01*
X141758504Y-105991496D01*
X141753197Y-105987950D01*
X141708724Y-105958234D01*
X141708717Y-105958231D01*
X141664822Y-105949500D01*
X141664820Y-105949500D01*
X139935180Y-105949500D01*
X139935178Y-105949500D01*
X139891282Y-105958231D01*
X139891275Y-105958234D01*
X139841496Y-105991495D01*
X139841495Y-105991496D01*
X139808234Y-106041275D01*
X139808231Y-106041282D01*
X139799500Y-106085177D01*
X139799500Y-106085180D01*
X139799500Y-107814820D01*
X139799500Y-107814822D01*
X139799499Y-107814822D01*
X138766555Y-107814822D01*
X138897782Y-107727139D01*
X139037139Y-107587782D01*
X139146632Y-107423914D01*
X139222051Y-107241835D01*
X139260500Y-107048541D01*
X139260500Y-106851459D01*
X139260500Y-106851456D01*
X139222052Y-106658170D01*
X139222051Y-106658169D01*
X139222051Y-106658165D01*
X139159511Y-106507179D01*
X139146635Y-106476092D01*
X139146628Y-106476079D01*
X139037139Y-106312218D01*
X139037136Y-106312214D01*
X138897785Y-106172863D01*
X138897782Y-106172861D01*
X138733920Y-106063371D01*
X138733907Y-106063364D01*
X138551839Y-105987950D01*
X138551829Y-105987947D01*
X138358543Y-105949500D01*
X138358541Y-105949500D01*
X138161459Y-105949500D01*
X138161457Y-105949500D01*
X137968170Y-105987947D01*
X137968160Y-105987950D01*
X137821297Y-106048783D01*
X137751828Y-106056252D01*
X137689349Y-106024977D01*
X137686164Y-106021903D01*
X136686819Y-105022558D01*
X136653334Y-104961235D01*
X136650500Y-104934877D01*
X136650500Y-97654892D01*
X136670185Y-97587853D01*
X136712500Y-97547505D01*
X136713691Y-97546817D01*
X136776613Y-97510489D01*
X136860489Y-97426613D01*
X136919799Y-97323886D01*
X136950500Y-97209309D01*
X136950500Y-97090691D01*
X136919799Y-96976114D01*
X136860489Y-96873387D01*
X136776613Y-96789511D01*
X136673886Y-96730201D01*
X136559309Y-96699500D01*
X136440691Y-96699500D01*
X136326114Y-96730201D01*
X136326112Y-96730201D01*
X136326112Y-96730202D01*
X136223387Y-96789511D01*
X136223384Y-96789513D01*
X136139513Y-96873384D01*
X136139511Y-96873387D01*
X136080201Y-96976114D01*
X136049500Y-97090691D01*
X124200500Y-97090691D01*
X124200500Y-82443713D01*
X125349500Y-82443713D01*
X125349500Y-82656286D01*
X125379185Y-82843713D01*
X125382754Y-82866243D01*
X125444503Y-83056287D01*
X125448444Y-83068414D01*
X125544951Y-83257820D01*
X125669890Y-83429786D01*
X125820213Y-83580109D01*
X125992179Y-83705048D01*
X125992181Y-83705049D01*
X125992184Y-83705051D01*
X126181588Y-83801557D01*
X126383757Y-83867246D01*
X126593713Y-83900500D01*
X126593714Y-83900500D01*
X126806286Y-83900500D01*
X126806287Y-83900500D01*
X127016243Y-83867246D01*
X127218412Y-83801557D01*
X127407816Y-83705051D01*
X127429789Y-83689086D01*
X127579786Y-83580109D01*
X127579788Y-83580106D01*
X127579792Y-83580104D01*
X127730104Y-83429792D01*
X127730106Y-83429788D01*
X127730109Y-83429786D01*
X127855048Y-83257820D01*
X127855047Y-83257820D01*
X127855051Y-83257816D01*
X127951557Y-83068412D01*
X128017246Y-82866243D01*
X128050500Y-82656287D01*
X128050500Y-82443713D01*
X128017246Y-82233757D01*
X127951557Y-82031588D01*
X127855051Y-81842184D01*
X127855049Y-81842181D01*
X127855048Y-81842179D01*
X127730109Y-81670213D01*
X127579786Y-81519890D01*
X127407820Y-81394951D01*
X127218414Y-81298444D01*
X127218413Y-81298443D01*
X127218412Y-81298443D01*
X127016243Y-81232754D01*
X127016241Y-81232753D01*
X127016240Y-81232753D01*
X126854957Y-81207208D01*
X126806287Y-81199500D01*
X126593713Y-81199500D01*
X126545042Y-81207208D01*
X126383760Y-81232753D01*
X126181585Y-81298444D01*
X125992179Y-81394951D01*
X125820213Y-81519890D01*
X125669890Y-81670213D01*
X125544951Y-81842179D01*
X125448444Y-82031585D01*
X125382753Y-82233760D01*
X125349500Y-82443713D01*
X124200500Y-82443713D01*
X124200500Y-80174500D01*
X124220185Y-80107461D01*
X124272989Y-80061706D01*
X124324500Y-80050500D01*
X156575500Y-80050500D01*
X156642539Y-80070185D01*
G37*
%TD.AperFunction*%
%TD*%
M02*
