%TF.GenerationSoftware,KiCad,Pcbnew,9.0.3*%
%TF.CreationDate,2025-08-01T20:51:34+05:30*%
%TF.ProjectId,BQ27621-G1_Breakout_Board_v1,42513237-3632-4312-9d47-315f42726561,rev?*%
%TF.SameCoordinates,Original*%
%TF.FileFunction,Legend,Top*%
%TF.FilePolarity,Positive*%
%FSLAX46Y46*%
G04 Gerber Fmt 4.6, Leading zero omitted, Abs format (unit mm)*
G04 Created by KiCad (PCBNEW 9.0.3) date 2025-08-01 20:51:34*
%MOMM*%
%LPD*%
G01*
G04 APERTURE LIST*
%ADD10C,0.150000*%
%ADD11C,0.120000*%
G04 APERTURE END LIST*
D10*
X148614819Y-83883333D02*
X149329104Y-83883333D01*
X149329104Y-83883333D02*
X149471961Y-83930952D01*
X149471961Y-83930952D02*
X149567200Y-84026190D01*
X149567200Y-84026190D02*
X149614819Y-84169047D01*
X149614819Y-84169047D02*
X149614819Y-84264285D01*
X149614819Y-82883333D02*
X149614819Y-83454761D01*
X149614819Y-83169047D02*
X148614819Y-83169047D01*
X148614819Y-83169047D02*
X148757676Y-83264285D01*
X148757676Y-83264285D02*
X148852914Y-83359523D01*
X148852914Y-83359523D02*
X148900533Y-83454761D01*
X143358333Y-90004819D02*
X143025000Y-89528628D01*
X142786905Y-90004819D02*
X142786905Y-89004819D01*
X142786905Y-89004819D02*
X143167857Y-89004819D01*
X143167857Y-89004819D02*
X143263095Y-89052438D01*
X143263095Y-89052438D02*
X143310714Y-89100057D01*
X143310714Y-89100057D02*
X143358333Y-89195295D01*
X143358333Y-89195295D02*
X143358333Y-89338152D01*
X143358333Y-89338152D02*
X143310714Y-89433390D01*
X143310714Y-89433390D02*
X143263095Y-89481009D01*
X143263095Y-89481009D02*
X143167857Y-89528628D01*
X143167857Y-89528628D02*
X142786905Y-89528628D01*
X144310714Y-90004819D02*
X143739286Y-90004819D01*
X144025000Y-90004819D02*
X144025000Y-89004819D01*
X144025000Y-89004819D02*
X143929762Y-89147676D01*
X143929762Y-89147676D02*
X143834524Y-89242914D01*
X143834524Y-89242914D02*
X143739286Y-89290533D01*
X148054819Y-89283333D02*
X148769104Y-89283333D01*
X148769104Y-89283333D02*
X148911961Y-89330952D01*
X148911961Y-89330952D02*
X149007200Y-89426190D01*
X149007200Y-89426190D02*
X149054819Y-89569047D01*
X149054819Y-89569047D02*
X149054819Y-89664285D01*
X149054819Y-88807142D02*
X148054819Y-88807142D01*
X148054819Y-88807142D02*
X148054819Y-88426190D01*
X148054819Y-88426190D02*
X148102438Y-88330952D01*
X148102438Y-88330952D02*
X148150057Y-88283333D01*
X148150057Y-88283333D02*
X148245295Y-88235714D01*
X148245295Y-88235714D02*
X148388152Y-88235714D01*
X148388152Y-88235714D02*
X148483390Y-88283333D01*
X148483390Y-88283333D02*
X148531009Y-88330952D01*
X148531009Y-88330952D02*
X148578628Y-88426190D01*
X148578628Y-88426190D02*
X148578628Y-88807142D01*
X148150057Y-87854761D02*
X148102438Y-87807142D01*
X148102438Y-87807142D02*
X148054819Y-87711904D01*
X148054819Y-87711904D02*
X148054819Y-87473809D01*
X148054819Y-87473809D02*
X148102438Y-87378571D01*
X148102438Y-87378571D02*
X148150057Y-87330952D01*
X148150057Y-87330952D02*
X148245295Y-87283333D01*
X148245295Y-87283333D02*
X148340533Y-87283333D01*
X148340533Y-87283333D02*
X148483390Y-87330952D01*
X148483390Y-87330952D02*
X149054819Y-87902380D01*
X149054819Y-87902380D02*
X149054819Y-87283333D01*
X149738095Y-110004819D02*
X149738095Y-109004819D01*
X149738095Y-109481009D02*
X150309523Y-109481009D01*
X150309523Y-110004819D02*
X150309523Y-109004819D01*
X151214285Y-109338152D02*
X151214285Y-110004819D01*
X150976190Y-108957200D02*
X150738095Y-109671485D01*
X150738095Y-109671485D02*
X151357142Y-109671485D01*
X131883333Y-93954819D02*
X131550000Y-93478628D01*
X131311905Y-93954819D02*
X131311905Y-92954819D01*
X131311905Y-92954819D02*
X131692857Y-92954819D01*
X131692857Y-92954819D02*
X131788095Y-93002438D01*
X131788095Y-93002438D02*
X131835714Y-93050057D01*
X131835714Y-93050057D02*
X131883333Y-93145295D01*
X131883333Y-93145295D02*
X131883333Y-93288152D01*
X131883333Y-93288152D02*
X131835714Y-93383390D01*
X131835714Y-93383390D02*
X131788095Y-93431009D01*
X131788095Y-93431009D02*
X131692857Y-93478628D01*
X131692857Y-93478628D02*
X131311905Y-93478628D01*
X132740476Y-93288152D02*
X132740476Y-93954819D01*
X132502381Y-92907200D02*
X132264286Y-93621485D01*
X132264286Y-93621485D02*
X132883333Y-93621485D01*
X145059580Y-96316666D02*
X145107200Y-96364285D01*
X145107200Y-96364285D02*
X145154819Y-96507142D01*
X145154819Y-96507142D02*
X145154819Y-96602380D01*
X145154819Y-96602380D02*
X145107200Y-96745237D01*
X145107200Y-96745237D02*
X145011961Y-96840475D01*
X145011961Y-96840475D02*
X144916723Y-96888094D01*
X144916723Y-96888094D02*
X144726247Y-96935713D01*
X144726247Y-96935713D02*
X144583390Y-96935713D01*
X144583390Y-96935713D02*
X144392914Y-96888094D01*
X144392914Y-96888094D02*
X144297676Y-96840475D01*
X144297676Y-96840475D02*
X144202438Y-96745237D01*
X144202438Y-96745237D02*
X144154819Y-96602380D01*
X144154819Y-96602380D02*
X144154819Y-96507142D01*
X144154819Y-96507142D02*
X144202438Y-96364285D01*
X144202438Y-96364285D02*
X144250057Y-96316666D01*
X145154819Y-95364285D02*
X145154819Y-95935713D01*
X145154819Y-95649999D02*
X144154819Y-95649999D01*
X144154819Y-95649999D02*
X144297676Y-95745237D01*
X144297676Y-95745237D02*
X144392914Y-95840475D01*
X144392914Y-95840475D02*
X144440533Y-95935713D01*
X131983333Y-101604819D02*
X131650000Y-101128628D01*
X131411905Y-101604819D02*
X131411905Y-100604819D01*
X131411905Y-100604819D02*
X131792857Y-100604819D01*
X131792857Y-100604819D02*
X131888095Y-100652438D01*
X131888095Y-100652438D02*
X131935714Y-100700057D01*
X131935714Y-100700057D02*
X131983333Y-100795295D01*
X131983333Y-100795295D02*
X131983333Y-100938152D01*
X131983333Y-100938152D02*
X131935714Y-101033390D01*
X131935714Y-101033390D02*
X131888095Y-101081009D01*
X131888095Y-101081009D02*
X131792857Y-101128628D01*
X131792857Y-101128628D02*
X131411905Y-101128628D01*
X132888095Y-100604819D02*
X132411905Y-100604819D01*
X132411905Y-100604819D02*
X132364286Y-101081009D01*
X132364286Y-101081009D02*
X132411905Y-101033390D01*
X132411905Y-101033390D02*
X132507143Y-100985771D01*
X132507143Y-100985771D02*
X132745238Y-100985771D01*
X132745238Y-100985771D02*
X132840476Y-101033390D01*
X132840476Y-101033390D02*
X132888095Y-101081009D01*
X132888095Y-101081009D02*
X132935714Y-101176247D01*
X132935714Y-101176247D02*
X132935714Y-101414342D01*
X132935714Y-101414342D02*
X132888095Y-101509580D01*
X132888095Y-101509580D02*
X132840476Y-101557200D01*
X132840476Y-101557200D02*
X132745238Y-101604819D01*
X132745238Y-101604819D02*
X132507143Y-101604819D01*
X132507143Y-101604819D02*
X132411905Y-101557200D01*
X132411905Y-101557200D02*
X132364286Y-101509580D01*
X129938095Y-110004819D02*
X129938095Y-109004819D01*
X129938095Y-109481009D02*
X130509523Y-109481009D01*
X130509523Y-110004819D02*
X130509523Y-109004819D01*
X130890476Y-109004819D02*
X131509523Y-109004819D01*
X131509523Y-109004819D02*
X131176190Y-109385771D01*
X131176190Y-109385771D02*
X131319047Y-109385771D01*
X131319047Y-109385771D02*
X131414285Y-109433390D01*
X131414285Y-109433390D02*
X131461904Y-109481009D01*
X131461904Y-109481009D02*
X131509523Y-109576247D01*
X131509523Y-109576247D02*
X131509523Y-109814342D01*
X131509523Y-109814342D02*
X131461904Y-109909580D01*
X131461904Y-109909580D02*
X131414285Y-109957200D01*
X131414285Y-109957200D02*
X131319047Y-110004819D01*
X131319047Y-110004819D02*
X131033333Y-110004819D01*
X131033333Y-110004819D02*
X130938095Y-109957200D01*
X130938095Y-109957200D02*
X130890476Y-109909580D01*
X131562319Y-97983333D02*
X132276604Y-97983333D01*
X132276604Y-97983333D02*
X132419461Y-98030952D01*
X132419461Y-98030952D02*
X132514700Y-98126190D01*
X132514700Y-98126190D02*
X132562319Y-98269047D01*
X132562319Y-98269047D02*
X132562319Y-98364285D01*
X132562319Y-97507142D02*
X131562319Y-97507142D01*
X131562319Y-97507142D02*
X131562319Y-97126190D01*
X131562319Y-97126190D02*
X131609938Y-97030952D01*
X131609938Y-97030952D02*
X131657557Y-96983333D01*
X131657557Y-96983333D02*
X131752795Y-96935714D01*
X131752795Y-96935714D02*
X131895652Y-96935714D01*
X131895652Y-96935714D02*
X131990890Y-96983333D01*
X131990890Y-96983333D02*
X132038509Y-97030952D01*
X132038509Y-97030952D02*
X132086128Y-97126190D01*
X132086128Y-97126190D02*
X132086128Y-97507142D01*
X132562319Y-95983333D02*
X132562319Y-96554761D01*
X132562319Y-96269047D02*
X131562319Y-96269047D01*
X131562319Y-96269047D02*
X131705176Y-96364285D01*
X131705176Y-96364285D02*
X131800414Y-96459523D01*
X131800414Y-96459523D02*
X131848033Y-96554761D01*
X129488095Y-81704819D02*
X129488095Y-80704819D01*
X129488095Y-81181009D02*
X130059523Y-81181009D01*
X130059523Y-81704819D02*
X130059523Y-80704819D01*
X131059523Y-81704819D02*
X130488095Y-81704819D01*
X130773809Y-81704819D02*
X130773809Y-80704819D01*
X130773809Y-80704819D02*
X130678571Y-80847676D01*
X130678571Y-80847676D02*
X130583333Y-80942914D01*
X130583333Y-80942914D02*
X130488095Y-80990533D01*
X138438095Y-95214819D02*
X138438095Y-96024342D01*
X138438095Y-96024342D02*
X138485714Y-96119580D01*
X138485714Y-96119580D02*
X138533333Y-96167200D01*
X138533333Y-96167200D02*
X138628571Y-96214819D01*
X138628571Y-96214819D02*
X138819047Y-96214819D01*
X138819047Y-96214819D02*
X138914285Y-96167200D01*
X138914285Y-96167200D02*
X138961904Y-96119580D01*
X138961904Y-96119580D02*
X139009523Y-96024342D01*
X139009523Y-96024342D02*
X139009523Y-95214819D01*
X140009523Y-96214819D02*
X139438095Y-96214819D01*
X139723809Y-96214819D02*
X139723809Y-95214819D01*
X139723809Y-95214819D02*
X139628571Y-95357676D01*
X139628571Y-95357676D02*
X139533333Y-95452914D01*
X139533333Y-95452914D02*
X139438095Y-95500533D01*
X142634819Y-107283333D02*
X143349104Y-107283333D01*
X143349104Y-107283333D02*
X143491961Y-107330952D01*
X143491961Y-107330952D02*
X143587200Y-107426190D01*
X143587200Y-107426190D02*
X143634819Y-107569047D01*
X143634819Y-107569047D02*
X143634819Y-107664285D01*
X142730057Y-106854761D02*
X142682438Y-106807142D01*
X142682438Y-106807142D02*
X142634819Y-106711904D01*
X142634819Y-106711904D02*
X142634819Y-106473809D01*
X142634819Y-106473809D02*
X142682438Y-106378571D01*
X142682438Y-106378571D02*
X142730057Y-106330952D01*
X142730057Y-106330952D02*
X142825295Y-106283333D01*
X142825295Y-106283333D02*
X142920533Y-106283333D01*
X142920533Y-106283333D02*
X143063390Y-106330952D01*
X143063390Y-106330952D02*
X143634819Y-106902380D01*
X143634819Y-106902380D02*
X143634819Y-106283333D01*
X143358333Y-94004819D02*
X143025000Y-93528628D01*
X142786905Y-94004819D02*
X142786905Y-93004819D01*
X142786905Y-93004819D02*
X143167857Y-93004819D01*
X143167857Y-93004819D02*
X143263095Y-93052438D01*
X143263095Y-93052438D02*
X143310714Y-93100057D01*
X143310714Y-93100057D02*
X143358333Y-93195295D01*
X143358333Y-93195295D02*
X143358333Y-93338152D01*
X143358333Y-93338152D02*
X143310714Y-93433390D01*
X143310714Y-93433390D02*
X143263095Y-93481009D01*
X143263095Y-93481009D02*
X143167857Y-93528628D01*
X143167857Y-93528628D02*
X142786905Y-93528628D01*
X143739286Y-93100057D02*
X143786905Y-93052438D01*
X143786905Y-93052438D02*
X143882143Y-93004819D01*
X143882143Y-93004819D02*
X144120238Y-93004819D01*
X144120238Y-93004819D02*
X144215476Y-93052438D01*
X144215476Y-93052438D02*
X144263095Y-93100057D01*
X144263095Y-93100057D02*
X144310714Y-93195295D01*
X144310714Y-93195295D02*
X144310714Y-93290533D01*
X144310714Y-93290533D02*
X144263095Y-93433390D01*
X144263095Y-93433390D02*
X143691667Y-94004819D01*
X143691667Y-94004819D02*
X144310714Y-94004819D01*
X138883333Y-102839580D02*
X138835714Y-102887200D01*
X138835714Y-102887200D02*
X138692857Y-102934819D01*
X138692857Y-102934819D02*
X138597619Y-102934819D01*
X138597619Y-102934819D02*
X138454762Y-102887200D01*
X138454762Y-102887200D02*
X138359524Y-102791961D01*
X138359524Y-102791961D02*
X138311905Y-102696723D01*
X138311905Y-102696723D02*
X138264286Y-102506247D01*
X138264286Y-102506247D02*
X138264286Y-102363390D01*
X138264286Y-102363390D02*
X138311905Y-102172914D01*
X138311905Y-102172914D02*
X138359524Y-102077676D01*
X138359524Y-102077676D02*
X138454762Y-101982438D01*
X138454762Y-101982438D02*
X138597619Y-101934819D01*
X138597619Y-101934819D02*
X138692857Y-101934819D01*
X138692857Y-101934819D02*
X138835714Y-101982438D01*
X138835714Y-101982438D02*
X138883333Y-102030057D01*
X139264286Y-102030057D02*
X139311905Y-101982438D01*
X139311905Y-101982438D02*
X139407143Y-101934819D01*
X139407143Y-101934819D02*
X139645238Y-101934819D01*
X139645238Y-101934819D02*
X139740476Y-101982438D01*
X139740476Y-101982438D02*
X139788095Y-102030057D01*
X139788095Y-102030057D02*
X139835714Y-102125295D01*
X139835714Y-102125295D02*
X139835714Y-102220533D01*
X139835714Y-102220533D02*
X139788095Y-102363390D01*
X139788095Y-102363390D02*
X139216667Y-102934819D01*
X139216667Y-102934819D02*
X139835714Y-102934819D01*
X150238095Y-81704819D02*
X150238095Y-80704819D01*
X150238095Y-81181009D02*
X150809523Y-81181009D01*
X150809523Y-81704819D02*
X150809523Y-80704819D01*
X151238095Y-80800057D02*
X151285714Y-80752438D01*
X151285714Y-80752438D02*
X151380952Y-80704819D01*
X151380952Y-80704819D02*
X151619047Y-80704819D01*
X151619047Y-80704819D02*
X151714285Y-80752438D01*
X151714285Y-80752438D02*
X151761904Y-80800057D01*
X151761904Y-80800057D02*
X151809523Y-80895295D01*
X151809523Y-80895295D02*
X151809523Y-80990533D01*
X151809523Y-80990533D02*
X151761904Y-81133390D01*
X151761904Y-81133390D02*
X151190476Y-81704819D01*
X151190476Y-81704819D02*
X151809523Y-81704819D01*
X143358333Y-92004819D02*
X143025000Y-91528628D01*
X142786905Y-92004819D02*
X142786905Y-91004819D01*
X142786905Y-91004819D02*
X143167857Y-91004819D01*
X143167857Y-91004819D02*
X143263095Y-91052438D01*
X143263095Y-91052438D02*
X143310714Y-91100057D01*
X143310714Y-91100057D02*
X143358333Y-91195295D01*
X143358333Y-91195295D02*
X143358333Y-91338152D01*
X143358333Y-91338152D02*
X143310714Y-91433390D01*
X143310714Y-91433390D02*
X143263095Y-91481009D01*
X143263095Y-91481009D02*
X143167857Y-91528628D01*
X143167857Y-91528628D02*
X142786905Y-91528628D01*
X143691667Y-91004819D02*
X144310714Y-91004819D01*
X144310714Y-91004819D02*
X143977381Y-91385771D01*
X143977381Y-91385771D02*
X144120238Y-91385771D01*
X144120238Y-91385771D02*
X144215476Y-91433390D01*
X144215476Y-91433390D02*
X144263095Y-91481009D01*
X144263095Y-91481009D02*
X144310714Y-91576247D01*
X144310714Y-91576247D02*
X144310714Y-91814342D01*
X144310714Y-91814342D02*
X144263095Y-91909580D01*
X144263095Y-91909580D02*
X144215476Y-91957200D01*
X144215476Y-91957200D02*
X144120238Y-92004819D01*
X144120238Y-92004819D02*
X143834524Y-92004819D01*
X143834524Y-92004819D02*
X143739286Y-91957200D01*
X143739286Y-91957200D02*
X143691667Y-91909580D01*
D11*
%TO.C,J1*%
X135240000Y-82170000D02*
X135240000Y-84930000D01*
X145510000Y-82170000D02*
X135240000Y-82170000D01*
X145510000Y-82170000D02*
X145510000Y-84930000D01*
X145510000Y-84930000D02*
X135240000Y-84930000D01*
X146780000Y-82170000D02*
X148160000Y-82170000D01*
X148160000Y-82170000D02*
X148160000Y-83550000D01*
%TO.C,R1*%
X140867224Y-89027500D02*
X140357776Y-89027500D01*
X140867224Y-90072500D02*
X140357776Y-90072500D01*
%TO.C,JP2*%
X145300000Y-86850000D02*
X145300000Y-87450000D01*
X145600000Y-87150000D02*
X145300000Y-86850000D01*
X145600000Y-87150000D02*
X145300000Y-87450000D01*
X145800000Y-86400000D02*
X147800000Y-86400000D01*
X145800000Y-90500000D02*
X145800000Y-86400000D01*
X147800000Y-86400000D02*
X147800000Y-90500000D01*
X147800000Y-90500000D02*
X145800000Y-90500000D01*
%TO.C,R4*%
X135042224Y-93027500D02*
X134532776Y-93027500D01*
X135042224Y-94072500D02*
X134532776Y-94072500D01*
%TO.C,C1*%
X142190000Y-96796267D02*
X142190000Y-96503733D01*
X143210000Y-96796267D02*
X143210000Y-96503733D01*
%TO.C,R5*%
X134832776Y-100527500D02*
X135342224Y-100527500D01*
X134832776Y-101572500D02*
X135342224Y-101572500D01*
%TO.C,JP1*%
X132907500Y-95100000D02*
X134907500Y-95100000D01*
X132907500Y-99200000D02*
X132907500Y-95100000D01*
X134907500Y-95100000D02*
X134907500Y-99200000D01*
X134907500Y-99200000D02*
X132907500Y-99200000D01*
X135107500Y-98450000D02*
X135407500Y-98150000D01*
X135107500Y-98450000D02*
X135407500Y-98750000D01*
X135407500Y-98750000D02*
X135407500Y-98150000D01*
%TO.C,U1*%
X138280000Y-98450000D02*
X138280000Y-97045000D01*
X138675000Y-96650000D02*
X140120000Y-96650000D01*
X140120000Y-96650000D02*
X140120000Y-98450000D01*
X140120000Y-98450000D02*
X138280000Y-98450000D01*
X138280000Y-96650000D02*
X137780000Y-96650000D01*
X138280000Y-96150000D01*
X138280000Y-96650000D01*
G36*
X138280000Y-96650000D02*
G01*
X137780000Y-96650000D01*
X138280000Y-96150000D01*
X138280000Y-96650000D01*
G37*
%TO.C,J2*%
X134340000Y-105570000D02*
X134340000Y-108330000D01*
X139530000Y-105570000D02*
X134340000Y-105570000D01*
X139530000Y-105570000D02*
X139530000Y-108330000D01*
X139530000Y-108330000D02*
X134340000Y-108330000D01*
X140800000Y-105570000D02*
X142180000Y-105570000D01*
X142180000Y-105570000D02*
X142180000Y-106950000D01*
%TO.C,R2*%
X140867224Y-93027500D02*
X140357776Y-93027500D01*
X140867224Y-94072500D02*
X140357776Y-94072500D01*
%TO.C,C2*%
X139196267Y-100540000D02*
X138903733Y-100540000D01*
X139196267Y-101560000D02*
X138903733Y-101560000D01*
%TO.C,R3*%
X140867224Y-91027500D02*
X140357776Y-91027500D01*
X140867224Y-92072500D02*
X140357776Y-92072500D01*
%TD*%
M02*
