%TF.GenerationSoftware,KiCad,Pcbnew,9.0.3*%
%TF.CreationDate,2025-08-01T20:51:34+05:30*%
%TF.ProjectId,BQ27621-G1_Breakout_Board_v1,42513237-3632-4312-9d47-315f42726561,rev?*%
%TF.SameCoordinates,Original*%
%TF.FileFunction,Copper,L1,Top*%
%TF.FilePolarity,Positive*%
%FSLAX46Y46*%
G04 Gerber Fmt 4.6, Leading zero omitted, Abs format (unit mm)*
G04 Created by KiCad (PCBNEW 9.0.3) date 2025-08-01 20:51:34*
%MOMM*%
%LPD*%
G01*
G04 APERTURE LIST*
G04 Aperture macros list*
%AMRoundRect*
0 Rectangle with rounded corners*
0 $1 Rounding radius*
0 $2 $3 $4 $5 $6 $7 $8 $9 X,Y pos of 4 corners*
0 Add a 4 corners polygon primitive as box body*
4,1,4,$2,$3,$4,$5,$6,$7,$8,$9,$2,$3,0*
0 Add four circle primitives for the rounded corners*
1,1,$1+$1,$2,$3*
1,1,$1+$1,$4,$5*
1,1,$1+$1,$6,$7*
1,1,$1+$1,$8,$9*
0 Add four rect primitives between the rounded corners*
20,1,$1+$1,$2,$3,$4,$5,0*
20,1,$1+$1,$4,$5,$6,$7,0*
20,1,$1+$1,$6,$7,$8,$9,0*
20,1,$1+$1,$8,$9,$2,$3,0*%
G04 Aperture macros list end*
%TA.AperFunction,Conductor*%
%ADD10C,0.100000*%
%TD*%
%TA.AperFunction,Conductor*%
%ADD11C,0.200000*%
%TD*%
%TA.AperFunction,EtchedComponent*%
%ADD12C,0.000000*%
%TD*%
%TA.AperFunction,ComponentPad*%
%ADD13R,1.700000X1.700000*%
%TD*%
%TA.AperFunction,ComponentPad*%
%ADD14C,1.700000*%
%TD*%
%TA.AperFunction,SMDPad,CuDef*%
%ADD15RoundRect,0.237500X0.250000X0.237500X-0.250000X0.237500X-0.250000X-0.237500X0.250000X-0.237500X0*%
%TD*%
%TA.AperFunction,SMDPad,CuDef*%
%ADD16R,1.500000X1.000000*%
%TD*%
%TA.AperFunction,SMDPad,CuDef*%
%ADD17RoundRect,0.237500X0.237500X-0.300000X0.237500X0.300000X-0.237500X0.300000X-0.237500X-0.300000X0*%
%TD*%
%TA.AperFunction,SMDPad,CuDef*%
%ADD18RoundRect,0.237500X-0.250000X-0.237500X0.250000X-0.237500X0.250000X0.237500X-0.250000X0.237500X0*%
%TD*%
%TA.AperFunction,SMDPad,CuDef*%
%ADD19C,0.500000*%
%TD*%
%TA.AperFunction,BGAPad,CuDef*%
%ADD20C,0.245000*%
%TD*%
%TA.AperFunction,SMDPad,CuDef*%
%ADD21RoundRect,0.237500X0.300000X0.237500X-0.300000X0.237500X-0.300000X-0.237500X0.300000X-0.237500X0*%
%TD*%
%TA.AperFunction,ViaPad*%
%ADD22C,0.600000*%
%TD*%
%TA.AperFunction,Conductor*%
%ADD23C,0.500000*%
%TD*%
%TA.AperFunction,Conductor*%
%ADD24C,1.000000*%
%TD*%
%TA.AperFunction,Conductor*%
%ADD25C,0.150000*%
%TD*%
G04 APERTURE END LIST*
D10*
%TO.N,+BATT*%
X140600000Y-98550000D02*
X142200000Y-100350000D01*
X142200000Y-103550000D01*
X142200000Y-108550000D01*
X139400000Y-108550000D01*
X139400000Y-98350000D01*
X139150000Y-98183334D01*
X139150000Y-97950000D01*
X140000000Y-97950000D01*
X140600000Y-98550000D01*
%TA.AperFunction,Conductor*%
G36*
X140600000Y-98550000D02*
G01*
X142200000Y-100350000D01*
X142200000Y-103550000D01*
X142200000Y-108550000D01*
X139400000Y-108550000D01*
X139400000Y-98350000D01*
X139150000Y-98183334D01*
X139150000Y-97950000D01*
X140000000Y-97950000D01*
X140600000Y-98550000D01*
G37*
%TD.AperFunction*%
%TO.N,VDDEx*%
D11*
X134750000Y-92250000D02*
X136000000Y-92250000D01*
X134750000Y-92250000D01*
X134700000Y-91724600D02*
X136050000Y-91724600D01*
X136050000Y-91900000D01*
X134700000Y-91900000D01*
X134700000Y-91724600D01*
D10*
%TO.N,GNDREF*%
X138850000Y-98190000D02*
X138650000Y-98350000D01*
X138650000Y-104550000D01*
X136900000Y-106150000D01*
X136900000Y-108550000D01*
X134250000Y-108550000D01*
X134250000Y-103800000D01*
X135500000Y-102250000D01*
X135500000Y-100250000D01*
X135800000Y-100250000D01*
X137700000Y-98700000D01*
X138350000Y-97900000D01*
X138850000Y-97900000D01*
X138850000Y-98190000D01*
%TA.AperFunction,Conductor*%
G36*
X138850000Y-98190000D02*
G01*
X138650000Y-98350000D01*
X138650000Y-104550000D01*
X136900000Y-106150000D01*
X136900000Y-108550000D01*
X134250000Y-108550000D01*
X134250000Y-103800000D01*
X135500000Y-102250000D01*
X135500000Y-100250000D01*
X135800000Y-100250000D01*
X137700000Y-98700000D01*
X138350000Y-97900000D01*
X138850000Y-97900000D01*
X138850000Y-98190000D01*
G37*
%TD.AperFunction*%
D12*
%TA.AperFunction,EtchedComponent*%
%TD*%
%TO.C,JP2*%
G36*
X147100000Y-88050000D02*
G01*
X146500000Y-88050000D01*
X146500000Y-87550000D01*
X147100000Y-87550000D01*
X147100000Y-88050000D01*
G37*
%TD.AperFunction*%
%TA.AperFunction,EtchedComponent*%
%TO.C,JP1*%
G36*
X134207500Y-98050000D02*
G01*
X133607500Y-98050000D01*
X133607500Y-97550000D01*
X134207500Y-97550000D01*
X134207500Y-98050000D01*
G37*
%TD.AperFunction*%
%TD*%
D13*
%TO.P,J1,1,Pin_1*%
%TO.N,VDDE*%
X146780000Y-83550000D03*
D14*
%TO.P,J1,2,Pin_2*%
%TO.N,/GPOUT*%
X144240000Y-83550000D03*
%TO.P,J1,3,Pin_3*%
%TO.N,/SCL*%
X141700000Y-83550000D03*
%TO.P,J1,4,Pin_4*%
%TO.N,/SDA*%
X139160000Y-83550000D03*
%TO.P,J1,5,Pin_5*%
%TO.N,GNDREF*%
X136620000Y-83550000D03*
%TD*%
D15*
%TO.P,R1,1*%
%TO.N,VDDEx*%
X141525000Y-89550000D03*
%TO.P,R1,2*%
%TO.N,/GPOUT*%
X139700000Y-89550000D03*
%TD*%
D16*
%TO.P,JP2,1,A*%
%TO.N,VDDE*%
X146800000Y-87150000D03*
%TO.P,JP2,2,C*%
%TO.N,VDDEx*%
X146800000Y-88450000D03*
%TO.P,JP2,3,B*%
%TO.N,VDD*%
X146800000Y-89750000D03*
%TD*%
D15*
%TO.P,R4,1*%
%TO.N,VDDEx*%
X135700000Y-93550000D03*
%TO.P,R4,2*%
%TO.N,Net-(JP1-B)*%
X133875000Y-93550000D03*
%TD*%
D17*
%TO.P,C1,1*%
%TO.N,VDD*%
X142700000Y-97512500D03*
%TO.P,C1,2*%
%TO.N,GNDREF*%
X142700000Y-95787500D03*
%TD*%
D18*
%TO.P,R5,1*%
%TO.N,Net-(JP1-A)*%
X134175000Y-101050000D03*
%TO.P,R5,2*%
%TO.N,GNDREF*%
X136000000Y-101050000D03*
%TD*%
D19*
%TO.P,FID1,*%
%TO.N,*%
X150500000Y-85750000D03*
%TD*%
D16*
%TO.P,JP1,1,A*%
%TO.N,Net-(JP1-A)*%
X133907500Y-98450000D03*
%TO.P,JP1,2,C*%
%TO.N,/BIN*%
X133907500Y-97150000D03*
%TO.P,JP1,3,B*%
%TO.N,Net-(JP1-B)*%
X133907500Y-95850000D03*
%TD*%
D20*
%TO.P,U1,A1,GPOUT*%
%TO.N,/GPOUT*%
X138700000Y-97050000D03*
%TO.P,U1,A2,SDA*%
%TO.N,/SDA*%
X139200000Y-97050000D03*
%TO.P,U1,A3,SCL*%
%TO.N,/SCL*%
X139700000Y-97050000D03*
%TO.P,U1,B1,BIN*%
%TO.N,/BIN*%
X138700000Y-97550000D03*
%TO.P,U1,B2,VSS*%
%TO.N,GNDREF*%
X139200000Y-97550000D03*
%TO.P,U1,B3,VDD*%
%TO.N,VDD*%
X139700000Y-97550000D03*
%TO.P,U1,C1,NC*%
%TO.N,GNDREF*%
X138700000Y-98050000D03*
%TO.P,U1,C2,BAT*%
%TO.N,+BATT*%
X139200000Y-98050000D03*
%TO.P,U1,C3,BAT*%
X139700000Y-98050000D03*
%TD*%
D19*
%TO.P,FID3,*%
%TO.N,*%
X147500000Y-110500000D03*
%TD*%
D13*
%TO.P,J2,1,Pin_1*%
%TO.N,+BATT*%
X140800000Y-106950000D03*
D14*
%TO.P,J2,2,Pin_2*%
%TO.N,/BIN*%
X138260000Y-106950000D03*
%TO.P,J2,3,Pin_3*%
%TO.N,GNDREF*%
X135720000Y-106950000D03*
%TD*%
D15*
%TO.P,R2,1*%
%TO.N,VDDEx*%
X141525000Y-93550000D03*
%TO.P,R2,2*%
%TO.N,/SCL*%
X139700000Y-93550000D03*
%TD*%
D19*
%TO.P,FID2,*%
%TO.N,*%
X126200000Y-88550000D03*
%TD*%
D21*
%TO.P,C2,1*%
%TO.N,+BATT*%
X139912500Y-101050000D03*
%TO.P,C2,2*%
%TO.N,GNDREF*%
X138187500Y-101050000D03*
%TD*%
D15*
%TO.P,R3,1*%
%TO.N,VDDEx*%
X141525000Y-91550000D03*
%TO.P,R3,2*%
%TO.N,/SDA*%
X139700000Y-91550000D03*
%TD*%
D22*
%TO.N,GNDREF*%
X138200000Y-102050000D03*
X138010000Y-104660000D03*
X137700000Y-99350000D03*
X143950000Y-94550000D03*
X138187500Y-103350000D03*
X138400000Y-99350000D03*
X137200000Y-99850000D03*
X138400000Y-99950000D03*
X143950000Y-95800000D03*
X133450000Y-85550000D03*
X138350000Y-98700000D03*
X134200000Y-86300000D03*
X134200000Y-83550000D03*
X137100000Y-102150000D03*
X133450000Y-84300000D03*
X134900000Y-104650000D03*
X134950000Y-103500000D03*
X135200000Y-83550000D03*
X135200000Y-86300000D03*
%TO.N,/GPOUT*%
X138700000Y-90050000D03*
%TO.N,/SCL*%
X139700000Y-94550000D03*
%TO.N,/SDA*%
X138500000Y-92250000D03*
%TO.N,/BIN*%
X136500000Y-97150000D03*
%TO.N,VDDEx*%
X135800000Y-92150000D03*
X142500000Y-91750000D03*
X142500000Y-93350000D03*
X135000000Y-92150000D03*
X142500000Y-92550000D03*
%TD*%
D23*
%TO.N,VDD*%
X140300000Y-97550000D02*
X140800000Y-97550000D01*
D24*
X143700000Y-97550000D02*
X140800000Y-97550000D01*
D11*
X139700000Y-97550000D02*
X140300000Y-97550000D01*
D24*
X146800000Y-89750000D02*
X146800000Y-94450000D01*
X146800000Y-94450000D02*
X143700000Y-97550000D01*
D25*
%TO.N,GNDREF*%
X138350000Y-98700000D02*
X137800000Y-99250000D01*
D11*
X138749000Y-98001000D02*
X138749000Y-97951000D01*
D25*
X136000000Y-101850000D02*
X136300000Y-102150000D01*
D11*
X135200000Y-103950000D02*
X136600000Y-103950000D01*
D25*
X136000000Y-101550000D02*
X136000000Y-101850000D01*
D11*
X138400000Y-101400000D02*
X138400000Y-99850000D01*
D25*
X136300000Y-102150000D02*
X137100000Y-102150000D01*
D11*
X138187500Y-101050000D02*
X138187500Y-103350000D01*
X138400000Y-99850000D02*
X137800000Y-99250000D01*
D25*
X138100000Y-102150000D02*
X138200000Y-102050000D01*
D11*
X136575000Y-100175000D02*
X138700000Y-98050000D01*
X134900000Y-103550000D02*
X134950000Y-103500000D01*
X136620000Y-83550000D02*
X136700000Y-83550000D01*
X138350000Y-101450000D02*
X138350000Y-98700000D01*
X136900000Y-104250000D02*
X136900000Y-105450000D01*
D25*
X137800000Y-99250000D02*
X137400000Y-99650000D01*
D11*
X135720000Y-106370000D02*
X134900000Y-105550000D01*
X137800000Y-99250000D02*
X137900000Y-99150000D01*
X135200000Y-83550000D02*
X134200000Y-83550000D01*
X142700000Y-95787500D02*
X143937500Y-95787500D01*
X143950000Y-95800000D02*
X143950000Y-94550000D01*
X134900000Y-105550000D02*
X134900000Y-104650000D01*
X138010000Y-104660000D02*
X135720000Y-106950000D01*
D25*
X136575000Y-100475000D02*
X138350000Y-98700000D01*
D11*
X135720000Y-106950000D02*
X135720000Y-106370000D01*
D25*
X137100000Y-102150000D02*
X138100000Y-102150000D01*
X138700000Y-98050000D02*
X139200000Y-97550000D01*
D11*
X133700000Y-83550000D02*
X133450000Y-83800000D01*
X134900000Y-104650000D02*
X134900000Y-104250000D01*
X136900000Y-105450000D02*
X136400000Y-105950000D01*
X133700000Y-86300000D02*
X135200000Y-86300000D01*
X136000000Y-102450000D02*
X136000000Y-101550000D01*
D25*
X136000000Y-101050000D02*
X136000000Y-101550000D01*
D11*
X136575000Y-101075000D02*
X138500000Y-99150000D01*
X137800000Y-99850000D02*
X138400000Y-99250000D01*
X138187500Y-103350000D02*
X138187500Y-104482500D01*
X133450000Y-85550000D02*
X133450000Y-86050000D01*
X133450000Y-83800000D02*
X133450000Y-85550000D01*
X138700000Y-98050000D02*
X138749000Y-98001000D01*
X138187500Y-104482500D02*
X138010000Y-104660000D01*
X136700000Y-83550000D02*
X135200000Y-83550000D01*
X134950000Y-103500000D02*
X136000000Y-102450000D01*
X133450000Y-86050000D02*
X133700000Y-86300000D01*
X134900000Y-104650000D02*
X134900000Y-103550000D01*
X137200000Y-99850000D02*
X137800000Y-99850000D01*
D25*
X136000000Y-101050000D02*
X137400000Y-99650000D01*
D11*
X136600000Y-103950000D02*
X136900000Y-104250000D01*
X134900000Y-104250000D02*
X135200000Y-103950000D01*
X134200000Y-83550000D02*
X133700000Y-83550000D01*
X143937500Y-95787500D02*
X143950000Y-95800000D01*
%TO.N,/GPOUT*%
X137900000Y-90850000D02*
X139200000Y-89550000D01*
X139200000Y-89550000D02*
X139700000Y-89550000D01*
X138700000Y-97050000D02*
X137900000Y-96250000D01*
X137900000Y-96250000D02*
X137900000Y-90850000D01*
%TO.N,/SCL*%
X139700000Y-97050000D02*
X139700000Y-94550000D01*
X139700000Y-94550000D02*
X139700000Y-93550000D01*
D24*
%TO.N,VDDE*%
X146780000Y-83550000D02*
X146780000Y-87130000D01*
D11*
X146780000Y-87130000D02*
X146800000Y-87150000D01*
%TO.N,/SDA*%
X139200000Y-91550000D02*
X139700000Y-91550000D01*
X139200000Y-95050000D02*
X138500000Y-94350000D01*
X138500000Y-92250000D02*
X139200000Y-91550000D01*
X139200000Y-97050000D02*
X139200000Y-95050000D01*
X138500000Y-94350000D02*
X138500000Y-92250000D01*
%TO.N,/BIN*%
X136500000Y-97150000D02*
X133907500Y-97150000D01*
X136600000Y-97150000D02*
X136500000Y-97150000D01*
X137000000Y-97550000D02*
X136600000Y-97150000D01*
X138700000Y-97550000D02*
X137000000Y-97550000D01*
D24*
%TO.N,VDDEx*%
X142200000Y-93550000D02*
X141525000Y-93550000D01*
X135000000Y-92150000D02*
X135000000Y-92850000D01*
X141525000Y-89550000D02*
X141525000Y-91550000D01*
X142500000Y-91750000D02*
X142500000Y-92550000D01*
X142625000Y-88450000D02*
X141525000Y-89550000D01*
X141525000Y-89550000D02*
X141525000Y-90750000D01*
X135800000Y-93450000D02*
X135800000Y-92150000D01*
X135000000Y-92850000D02*
X135700000Y-93550000D01*
X142500000Y-92550000D02*
X142500000Y-93250000D01*
X135700000Y-93550000D02*
X135800000Y-93450000D01*
X146800000Y-88450000D02*
X142625000Y-88450000D01*
X141525000Y-91550000D02*
X141525000Y-93550000D01*
X142500000Y-93250000D02*
X142200000Y-93550000D01*
X142500000Y-91725000D02*
X142500000Y-91750000D01*
X141525000Y-90750000D02*
X142500000Y-91725000D01*
%TO.N,Net-(JP1-A)*%
X133907500Y-98450000D02*
X133907500Y-100782500D01*
X133907500Y-100782500D02*
X134175000Y-101050000D01*
D11*
%TO.N,Net-(JP1-B)*%
X133875000Y-95817500D02*
X133907500Y-95850000D01*
D24*
X133875000Y-93550000D02*
X133875000Y-95817500D01*
%TD*%
%TA.AperFunction,Conductor*%
%TO.N,GNDREF*%
G36*
X156642539Y-80070185D02*
G01*
X156688294Y-80122989D01*
X156699500Y-80174500D01*
X156699500Y-111925500D01*
X156679815Y-111992539D01*
X156627011Y-112038294D01*
X156575500Y-112049500D01*
X124324500Y-112049500D01*
X124257461Y-112029815D01*
X124211706Y-111977011D01*
X124200500Y-111925500D01*
X124200500Y-109443713D01*
X125349500Y-109443713D01*
X125349500Y-109656287D01*
X125382754Y-109866243D01*
X125437134Y-110033608D01*
X125448444Y-110068414D01*
X125544951Y-110257820D01*
X125669890Y-110429786D01*
X125820213Y-110580109D01*
X125992179Y-110705048D01*
X125992181Y-110705049D01*
X125992184Y-110705051D01*
X126181588Y-110801557D01*
X126383757Y-110867246D01*
X126593713Y-110900500D01*
X126593714Y-110900500D01*
X126806286Y-110900500D01*
X126806287Y-110900500D01*
X127016243Y-110867246D01*
X127218412Y-110801557D01*
X127407816Y-110705051D01*
X127429789Y-110689086D01*
X127579786Y-110580109D01*
X127579788Y-110580106D01*
X127579792Y-110580104D01*
X127725788Y-110434108D01*
X146999500Y-110434108D01*
X146999500Y-110565892D01*
X147016554Y-110629539D01*
X147033608Y-110693187D01*
X147040458Y-110705051D01*
X147099500Y-110807314D01*
X147192686Y-110900500D01*
X147306814Y-110966392D01*
X147434108Y-111000500D01*
X147434110Y-111000500D01*
X147565890Y-111000500D01*
X147565892Y-111000500D01*
X147693186Y-110966392D01*
X147807314Y-110900500D01*
X147900500Y-110807314D01*
X147966392Y-110693186D01*
X148000500Y-110565892D01*
X148000500Y-110434108D01*
X147966392Y-110306814D01*
X147900500Y-110192686D01*
X147807314Y-110099500D01*
X147750250Y-110066554D01*
X147693187Y-110033608D01*
X147629539Y-110016554D01*
X147565892Y-109999500D01*
X147434108Y-109999500D01*
X147306812Y-110033608D01*
X147192686Y-110099500D01*
X147192683Y-110099502D01*
X147099502Y-110192683D01*
X147099500Y-110192686D01*
X147033608Y-110306812D01*
X147021207Y-110353094D01*
X146999500Y-110434108D01*
X127725788Y-110434108D01*
X127730104Y-110429792D01*
X127855051Y-110257816D01*
X127951557Y-110068412D01*
X128017246Y-109866243D01*
X128050500Y-109656287D01*
X128050500Y-109443713D01*
X152849500Y-109443713D01*
X152849500Y-109656287D01*
X152882754Y-109866243D01*
X152937134Y-110033608D01*
X152948444Y-110068414D01*
X153044951Y-110257820D01*
X153169890Y-110429786D01*
X153320213Y-110580109D01*
X153492179Y-110705048D01*
X153492181Y-110705049D01*
X153492184Y-110705051D01*
X153681588Y-110801557D01*
X153883757Y-110867246D01*
X154093713Y-110900500D01*
X154093714Y-110900500D01*
X154306286Y-110900500D01*
X154306287Y-110900500D01*
X154516243Y-110867246D01*
X154718412Y-110801557D01*
X154907816Y-110705051D01*
X154929789Y-110689086D01*
X155079786Y-110580109D01*
X155079788Y-110580106D01*
X155079792Y-110580104D01*
X155230104Y-110429792D01*
X155230106Y-110429788D01*
X155230109Y-110429786D01*
X155355048Y-110257820D01*
X155355049Y-110257819D01*
X155355051Y-110257816D01*
X155451557Y-110068412D01*
X155517246Y-109866243D01*
X155550500Y-109656287D01*
X155550500Y-109443713D01*
X155517246Y-109233757D01*
X155451557Y-109031588D01*
X155355051Y-108842184D01*
X155355049Y-108842181D01*
X155355048Y-108842179D01*
X155230109Y-108670213D01*
X155079786Y-108519890D01*
X154907820Y-108394951D01*
X154718414Y-108298444D01*
X154718413Y-108298443D01*
X154718412Y-108298443D01*
X154516243Y-108232754D01*
X154516241Y-108232753D01*
X154516240Y-108232753D01*
X154354957Y-108207208D01*
X154306287Y-108199500D01*
X154093713Y-108199500D01*
X154045042Y-108207208D01*
X153883760Y-108232753D01*
X153681585Y-108298444D01*
X153492179Y-108394951D01*
X153320213Y-108519890D01*
X153169890Y-108670213D01*
X153044951Y-108842179D01*
X152948444Y-109031585D01*
X152882753Y-109233760D01*
X152849500Y-109443713D01*
X128050500Y-109443713D01*
X128017246Y-109233757D01*
X127951557Y-109031588D01*
X127855051Y-108842184D01*
X127855049Y-108842181D01*
X127855048Y-108842179D01*
X127730109Y-108670213D01*
X127579786Y-108519890D01*
X127407820Y-108394951D01*
X127218414Y-108298444D01*
X127218413Y-108298443D01*
X127218412Y-108298443D01*
X127016243Y-108232754D01*
X127016241Y-108232753D01*
X127016240Y-108232753D01*
X126854957Y-108207208D01*
X126806287Y-108199500D01*
X126593713Y-108199500D01*
X126545042Y-108207208D01*
X126383760Y-108232753D01*
X126181585Y-108298444D01*
X125992179Y-108394951D01*
X125820213Y-108519890D01*
X125669890Y-108670213D01*
X125544951Y-108842179D01*
X125448444Y-109031585D01*
X125382753Y-109233760D01*
X125349500Y-109443713D01*
X124200500Y-109443713D01*
X124200500Y-96364822D01*
X133006999Y-96364822D01*
X133015731Y-96408717D01*
X133015732Y-96408720D01*
X133015732Y-96408721D01*
X133015733Y-96408722D01*
X133030693Y-96431111D01*
X133051569Y-96497789D01*
X133033083Y-96565169D01*
X133030699Y-96568878D01*
X133023988Y-96578922D01*
X133015732Y-96591279D01*
X133015731Y-96591282D01*
X133007000Y-96635177D01*
X133007000Y-96635180D01*
X133007000Y-97664820D01*
X133007000Y-97664822D01*
X133006999Y-97664822D01*
X133015731Y-97708717D01*
X133015732Y-97708720D01*
X133015732Y-97708721D01*
X133015733Y-97708722D01*
X133030693Y-97731111D01*
X133051569Y-97797789D01*
X133033083Y-97865169D01*
X133030699Y-97868878D01*
X133023988Y-97878922D01*
X133015732Y-97891279D01*
X133015731Y-97891282D01*
X133007000Y-97935177D01*
X133007000Y-97935180D01*
X133007000Y-98964820D01*
X133007000Y-98964822D01*
X133006999Y-98964822D01*
X133015731Y-99008717D01*
X133015732Y-99008721D01*
X133015733Y-99008722D01*
X133048996Y-99058504D01*
X133098778Y-99091767D01*
X133098781Y-99091767D01*
X133098782Y-99091768D01*
X133142672Y-99100499D01*
X133142677Y-99100499D01*
X133142680Y-99100500D01*
X133142682Y-99100500D01*
X133145142Y-99100742D01*
X133146354Y-99101231D01*
X133148655Y-99101689D01*
X133148568Y-99102125D01*
X133209932Y-99126897D01*
X133250296Y-99183927D01*
X133257000Y-99224146D01*
X133257000Y-100846569D01*
X133257000Y-100846570D01*
X133256999Y-100846570D01*
X133259721Y-100860254D01*
X133259723Y-100860259D01*
X133269792Y-100910877D01*
X133281999Y-100972244D01*
X133331035Y-101090627D01*
X133402223Y-101197169D01*
X133511130Y-101306076D01*
X133544614Y-101367397D01*
X133545921Y-101374359D01*
X133551389Y-101408888D01*
X133551389Y-101408889D01*
X133607190Y-101518404D01*
X133607193Y-101518408D01*
X133694091Y-101605306D01*
X133694095Y-101605309D01*
X133694097Y-101605311D01*
X133803607Y-101661109D01*
X133803609Y-101661109D01*
X133803611Y-101661110D01*
X133883614Y-101673781D01*
X133894454Y-101675498D01*
X133894461Y-101675499D01*
X133894467Y-101675500D01*
X133973034Y-101675499D01*
X133997225Y-101677882D01*
X134059511Y-101690271D01*
X134110928Y-101700498D01*
X134110930Y-101700499D01*
X134110931Y-101700499D01*
X134239070Y-101700499D01*
X134239070Y-101700498D01*
X134352774Y-101677882D01*
X134376965Y-101675499D01*
X134455537Y-101675499D01*
X134455537Y-101675498D01*
X134500962Y-101668304D01*
X134546388Y-101661110D01*
X134546389Y-101661110D01*
X134546390Y-101661109D01*
X134546393Y-101661109D01*
X134655903Y-101605311D01*
X134742811Y-101518403D01*
X134798609Y-101408893D01*
X134813000Y-101318033D01*
X134812999Y-101189120D01*
X134815382Y-101164926D01*
X134825499Y-101114069D01*
X134825499Y-100985930D01*
X134825498Y-100985929D01*
X134815382Y-100935069D01*
X134812999Y-100910877D01*
X134812999Y-100781962D01*
X134798610Y-100691111D01*
X134798610Y-100691110D01*
X134798609Y-100691108D01*
X134798609Y-100691107D01*
X134742811Y-100581597D01*
X134742809Y-100581595D01*
X134742806Y-100581591D01*
X134655908Y-100494693D01*
X134655903Y-100494689D01*
X134625703Y-100479301D01*
X134574908Y-100431325D01*
X134558000Y-100368817D01*
X134558000Y-99224146D01*
X134577685Y-99157107D01*
X134630489Y-99111352D01*
X134669858Y-99100742D01*
X134672317Y-99100500D01*
X134672320Y-99100500D01*
X134672323Y-99100499D01*
X134672327Y-99100499D01*
X134716217Y-99091768D01*
X134716217Y-99091767D01*
X134716222Y-99091767D01*
X134766004Y-99058504D01*
X134799267Y-99008722D01*
X134808000Y-98964820D01*
X134808000Y-97935180D01*
X134808000Y-97935177D01*
X134799268Y-97891282D01*
X134799267Y-97891278D01*
X134784307Y-97868889D01*
X134763430Y-97802214D01*
X134781914Y-97734833D01*
X134784307Y-97731111D01*
X134799267Y-97708722D01*
X134808000Y-97664820D01*
X134808000Y-97524500D01*
X134827685Y-97457461D01*
X134880489Y-97411706D01*
X134932000Y-97400500D01*
X136062036Y-97400500D01*
X136129075Y-97420185D01*
X136149717Y-97436819D01*
X136223387Y-97510489D01*
X136326114Y-97569799D01*
X136440691Y-97600500D01*
X136440694Y-97600500D01*
X136559307Y-97600500D01*
X136559309Y-97600500D01*
X136598151Y-97590092D01*
X136668001Y-97591755D01*
X136717925Y-97622186D01*
X136787636Y-97691897D01*
X136858103Y-97762364D01*
X136950172Y-97800500D01*
X138566712Y-97800500D01*
X138614164Y-97809938D01*
X138645697Y-97823000D01*
X138645699Y-97823000D01*
X138754302Y-97823000D01*
X138754303Y-97823000D01*
X138760673Y-97820361D01*
X138772539Y-97815447D01*
X138842008Y-97807977D01*
X138904488Y-97839251D01*
X138940141Y-97899340D01*
X138943993Y-97929746D01*
X138944045Y-97954546D01*
X138927000Y-97995697D01*
X138927000Y-98104303D01*
X138944448Y-98146426D01*
X138944500Y-98170955D01*
X138944469Y-98171060D01*
X138944500Y-98171216D01*
X138944500Y-98183334D01*
X138945245Y-98200821D01*
X138952373Y-98223103D01*
X138973109Y-98287927D01*
X138973112Y-98287932D01*
X139036004Y-98354317D01*
X139036010Y-98354322D01*
X139139282Y-98423169D01*
X139184144Y-98476734D01*
X139194500Y-98526344D01*
X139194500Y-106170216D01*
X139174815Y-106237255D01*
X139122011Y-106283010D01*
X139052853Y-106292954D01*
X138989297Y-106263929D01*
X138982819Y-106257897D01*
X138897785Y-106172863D01*
X138897781Y-106172860D01*
X138733920Y-106063371D01*
X138733907Y-106063364D01*
X138551839Y-105987950D01*
X138551829Y-105987947D01*
X138358543Y-105949500D01*
X138358541Y-105949500D01*
X138161459Y-105949500D01*
X138161457Y-105949500D01*
X137968170Y-105987947D01*
X137968160Y-105987950D01*
X137786092Y-106063364D01*
X137786079Y-106063371D01*
X137622218Y-106172860D01*
X137622214Y-106172863D01*
X137482863Y-106312214D01*
X137482860Y-106312218D01*
X137373371Y-106476079D01*
X137373364Y-106476092D01*
X137297950Y-106658160D01*
X137297947Y-106658170D01*
X137259500Y-106851456D01*
X137259500Y-106851459D01*
X137259500Y-107048541D01*
X137259500Y-107048543D01*
X137259499Y-107048543D01*
X137297947Y-107241829D01*
X137297950Y-107241839D01*
X137373364Y-107423907D01*
X137373371Y-107423920D01*
X137482860Y-107587781D01*
X137482863Y-107587785D01*
X137622214Y-107727136D01*
X137622218Y-107727139D01*
X137786079Y-107836628D01*
X137786092Y-107836635D01*
X137968160Y-107912049D01*
X137968165Y-107912051D01*
X137968169Y-107912051D01*
X137968170Y-107912052D01*
X138161456Y-107950500D01*
X138161459Y-107950500D01*
X138358543Y-107950500D01*
X138488582Y-107924632D01*
X138551835Y-107912051D01*
X138733914Y-107836632D01*
X138897782Y-107727139D01*
X138903983Y-107720938D01*
X138982819Y-107642103D01*
X139044142Y-107608618D01*
X139113834Y-107613602D01*
X139169767Y-107655474D01*
X139194184Y-107720938D01*
X139194500Y-107729784D01*
X139194500Y-108550004D01*
X139199651Y-108595728D01*
X139239333Y-108678126D01*
X139239334Y-108678127D01*
X139310837Y-108735149D01*
X139377428Y-108750348D01*
X139399995Y-108755499D01*
X139400000Y-108755500D01*
X142200003Y-108755500D01*
X142200003Y-108755499D01*
X142245728Y-108750348D01*
X142328127Y-108710666D01*
X142385149Y-108639163D01*
X142405500Y-108550000D01*
X142405500Y-100350000D01*
X142397619Y-100293635D01*
X142353593Y-100213473D01*
X140753593Y-98413473D01*
X140749922Y-98409580D01*
X140718244Y-98347305D01*
X140725264Y-98277788D01*
X140768752Y-98223103D01*
X140834903Y-98200610D01*
X140840129Y-98200500D01*
X143764071Y-98200500D01*
X143850406Y-98183326D01*
X143889744Y-98175501D01*
X144008127Y-98126465D01*
X144041295Y-98104303D01*
X144114669Y-98055277D01*
X147305277Y-94864669D01*
X147376465Y-94758127D01*
X147425501Y-94639744D01*
X147438543Y-94574180D01*
X147440893Y-94562365D01*
X147440893Y-94562363D01*
X147440987Y-94561893D01*
X147450500Y-94514069D01*
X147450500Y-90524146D01*
X147470185Y-90457107D01*
X147522989Y-90411352D01*
X147562358Y-90400742D01*
X147564817Y-90400500D01*
X147564820Y-90400500D01*
X147564823Y-90400499D01*
X147564827Y-90400499D01*
X147608717Y-90391768D01*
X147608717Y-90391767D01*
X147608722Y-90391767D01*
X147658504Y-90358504D01*
X147691767Y-90308722D01*
X147700500Y-90264820D01*
X147700500Y-89235180D01*
X147700500Y-89235177D01*
X147691768Y-89191282D01*
X147691767Y-89191278D01*
X147691653Y-89191107D01*
X147676807Y-89168889D01*
X147655930Y-89102214D01*
X147674414Y-89034833D01*
X147676792Y-89031132D01*
X147691767Y-89008722D01*
X147694558Y-88994690D01*
X147700500Y-88964822D01*
X147700500Y-87935177D01*
X147691768Y-87891282D01*
X147691767Y-87891278D01*
X147676807Y-87868889D01*
X147655930Y-87802214D01*
X147674414Y-87734833D01*
X147676792Y-87731132D01*
X147691767Y-87708722D01*
X147691768Y-87708717D01*
X147700500Y-87664822D01*
X147700500Y-86635177D01*
X147691768Y-86591282D01*
X147691767Y-86591281D01*
X147691767Y-86591278D01*
X147658504Y-86541496D01*
X147658503Y-86541495D01*
X147608724Y-86508234D01*
X147608717Y-86508231D01*
X147564822Y-86499500D01*
X147564820Y-86499500D01*
X147554500Y-86499500D01*
X147487461Y-86479815D01*
X147441706Y-86427011D01*
X147430500Y-86375500D01*
X147430500Y-85684108D01*
X149999500Y-85684108D01*
X149999500Y-85815891D01*
X150033608Y-85943187D01*
X150066554Y-86000250D01*
X150099500Y-86057314D01*
X150192686Y-86150500D01*
X150306814Y-86216392D01*
X150434108Y-86250500D01*
X150434110Y-86250500D01*
X150565890Y-86250500D01*
X150565892Y-86250500D01*
X150693186Y-86216392D01*
X150807314Y-86150500D01*
X150900500Y-86057314D01*
X150966392Y-85943186D01*
X151000500Y-85815892D01*
X151000500Y-85684108D01*
X150966392Y-85556814D01*
X150900500Y-85442686D01*
X150807314Y-85349500D01*
X150750250Y-85316554D01*
X150693187Y-85283608D01*
X150629539Y-85266554D01*
X150565892Y-85249500D01*
X150434108Y-85249500D01*
X150306812Y-85283608D01*
X150192686Y-85349500D01*
X150192683Y-85349502D01*
X150099502Y-85442683D01*
X150099500Y-85442686D01*
X150033608Y-85556812D01*
X149999500Y-85684108D01*
X147430500Y-85684108D01*
X147430500Y-84674500D01*
X147450185Y-84607461D01*
X147502989Y-84561706D01*
X147554500Y-84550500D01*
X147644822Y-84550500D01*
X147688717Y-84541768D01*
X147688717Y-84541767D01*
X147688722Y-84541767D01*
X147738504Y-84508504D01*
X147771767Y-84458722D01*
X147780500Y-84414820D01*
X147780500Y-82843713D01*
X152849500Y-82843713D01*
X152849500Y-83056287D01*
X152851421Y-83068414D01*
X152881474Y-83258165D01*
X152882754Y-83266243D01*
X152935892Y-83429785D01*
X152948444Y-83468414D01*
X153044951Y-83657820D01*
X153169890Y-83829786D01*
X153320213Y-83980109D01*
X153492179Y-84105048D01*
X153492181Y-84105049D01*
X153492184Y-84105051D01*
X153681588Y-84201557D01*
X153883757Y-84267246D01*
X154093713Y-84300500D01*
X154093714Y-84300500D01*
X154306286Y-84300500D01*
X154306287Y-84300500D01*
X154516243Y-84267246D01*
X154718412Y-84201557D01*
X154907816Y-84105051D01*
X154929789Y-84089086D01*
X155079786Y-83980109D01*
X155079788Y-83980106D01*
X155079792Y-83980104D01*
X155230104Y-83829792D01*
X155230106Y-83829788D01*
X155230109Y-83829786D01*
X155355048Y-83657820D01*
X155355047Y-83657820D01*
X155355051Y-83657816D01*
X155451557Y-83468412D01*
X155517246Y-83266243D01*
X155550500Y-83056287D01*
X155550500Y-82843713D01*
X155517246Y-82633757D01*
X155451557Y-82431588D01*
X155355051Y-82242184D01*
X155355049Y-82242181D01*
X155355048Y-82242179D01*
X155230109Y-82070213D01*
X155079786Y-81919890D01*
X154907820Y-81794951D01*
X154718414Y-81698444D01*
X154718413Y-81698443D01*
X154718412Y-81698443D01*
X154516243Y-81632754D01*
X154516241Y-81632753D01*
X154516240Y-81632753D01*
X154354957Y-81607208D01*
X154306287Y-81599500D01*
X154093713Y-81599500D01*
X154045042Y-81607208D01*
X153883760Y-81632753D01*
X153681585Y-81698444D01*
X153492179Y-81794951D01*
X153320213Y-81919890D01*
X153169890Y-82070213D01*
X153044951Y-82242179D01*
X152948444Y-82431585D01*
X152882753Y-82633760D01*
X152849500Y-82843713D01*
X147780500Y-82843713D01*
X147780500Y-82685180D01*
X147780500Y-82685177D01*
X147771768Y-82641282D01*
X147771767Y-82641281D01*
X147771767Y-82641278D01*
X147738504Y-82591496D01*
X147733197Y-82587950D01*
X147688724Y-82558234D01*
X147688717Y-82558231D01*
X147644822Y-82549500D01*
X147644820Y-82549500D01*
X145915180Y-82549500D01*
X145915178Y-82549500D01*
X145871282Y-82558231D01*
X145871275Y-82558234D01*
X145821496Y-82591495D01*
X145821495Y-82591496D01*
X145788234Y-82641275D01*
X145788231Y-82641282D01*
X145779500Y-82685177D01*
X145779500Y-82685180D01*
X145779500Y-84414820D01*
X145779500Y-84414822D01*
X145779499Y-84414822D01*
X145788231Y-84458717D01*
X145788232Y-84458721D01*
X145788233Y-84458722D01*
X145821496Y-84508504D01*
X145871278Y-84541767D01*
X145871281Y-84541767D01*
X145871282Y-84541768D01*
X145915177Y-84550500D01*
X145915180Y-84550500D01*
X146005500Y-84550500D01*
X146072539Y-84570185D01*
X146118294Y-84622989D01*
X146129500Y-84674500D01*
X146129500Y-86378974D01*
X146109815Y-86446013D01*
X146057011Y-86491768D01*
X146029692Y-86500591D01*
X145991282Y-86508231D01*
X145991275Y-86508234D01*
X145941496Y-86541495D01*
X145941495Y-86541496D01*
X145908234Y-86591275D01*
X145908231Y-86591282D01*
X145899500Y-86635177D01*
X145899500Y-87670912D01*
X145897920Y-87670912D01*
X145886338Y-87731989D01*
X145838274Y-87782701D01*
X145775952Y-87799500D01*
X142560929Y-87799500D01*
X142435261Y-87824497D01*
X142435255Y-87824499D01*
X142316874Y-87873534D01*
X142210326Y-87944726D01*
X141256423Y-88898629D01*
X141195100Y-88932114D01*
X141188140Y-88933421D01*
X141153610Y-88938889D01*
X141044095Y-88994690D01*
X141044091Y-88994693D01*
X140957193Y-89081591D01*
X140957190Y-89081595D01*
X140901389Y-89191111D01*
X140887000Y-89281966D01*
X140887000Y-89410877D01*
X140884617Y-89435069D01*
X140874500Y-89485929D01*
X140874500Y-93614070D01*
X140884617Y-93664931D01*
X140887000Y-93689122D01*
X140887000Y-93818037D01*
X140901389Y-93908888D01*
X140901389Y-93908889D01*
X140957190Y-94018404D01*
X140957193Y-94018408D01*
X141044091Y-94105306D01*
X141044095Y-94105309D01*
X141044097Y-94105311D01*
X141153607Y-94161109D01*
X141153609Y-94161109D01*
X141153611Y-94161110D01*
X141233614Y-94173781D01*
X141244454Y-94175498D01*
X141244461Y-94175499D01*
X141244467Y-94175500D01*
X141323032Y-94175499D01*
X141347224Y-94177882D01*
X141460928Y-94200500D01*
X141460931Y-94200500D01*
X142264071Y-94200500D01*
X142348615Y-94183682D01*
X142389744Y-94175501D01*
X142508127Y-94126465D01*
X142614669Y-94055277D01*
X143005277Y-93664669D01*
X143076465Y-93558127D01*
X143125501Y-93439744D01*
X143136205Y-93385931D01*
X143150500Y-93314069D01*
X143150500Y-92485931D01*
X143150500Y-91685931D01*
X143150500Y-91660931D01*
X143150500Y-91660928D01*
X143125502Y-91535261D01*
X143125501Y-91535260D01*
X143125501Y-91535256D01*
X143076465Y-91416873D01*
X143076464Y-91416872D01*
X143076461Y-91416866D01*
X143005277Y-91310332D01*
X142976907Y-91281962D01*
X142914669Y-91219724D01*
X142211819Y-90516873D01*
X142178334Y-90455550D01*
X142175500Y-90429192D01*
X142175500Y-89870808D01*
X142195185Y-89803769D01*
X142211819Y-89783127D01*
X142858127Y-89136819D01*
X142919450Y-89103334D01*
X142945808Y-89100500D01*
X145775952Y-89100500D01*
X145842991Y-89120185D01*
X145888746Y-89172989D01*
X145898094Y-89229088D01*
X145899500Y-89229088D01*
X145899500Y-89235180D01*
X145899500Y-90264820D01*
X145899500Y-90264822D01*
X145899499Y-90264822D01*
X145908231Y-90308717D01*
X145908234Y-90308724D01*
X145941495Y-90358503D01*
X145941496Y-90358504D01*
X145991278Y-90391767D01*
X145991281Y-90391767D01*
X145991282Y-90391768D01*
X146035172Y-90400499D01*
X146035177Y-90400499D01*
X146035180Y-90400500D01*
X146035182Y-90400500D01*
X146037642Y-90400742D01*
X146038854Y-90401231D01*
X146041155Y-90401689D01*
X146041068Y-90402125D01*
X146102432Y-90426897D01*
X146142796Y-90483927D01*
X146149500Y-90524146D01*
X146149500Y-94129192D01*
X146129815Y-94196231D01*
X146113181Y-94216873D01*
X143466873Y-96863181D01*
X143439945Y-96877884D01*
X143414127Y-96894477D01*
X143407926Y-96895368D01*
X143405550Y-96896666D01*
X143379192Y-96899500D01*
X143207614Y-96899500D01*
X143151321Y-96885985D01*
X143058893Y-96838891D01*
X143058891Y-96838890D01*
X143058888Y-96838889D01*
X142968033Y-96824500D01*
X142431962Y-96824500D01*
X142431962Y-96824501D01*
X142341111Y-96838889D01*
X142341110Y-96838889D01*
X142304296Y-96857647D01*
X142248678Y-96885985D01*
X142192386Y-96899500D01*
X140735929Y-96899500D01*
X140610261Y-96924497D01*
X140610255Y-96924499D01*
X140491875Y-96973533D01*
X140491866Y-96973538D01*
X140385331Y-97044723D01*
X140385327Y-97044726D01*
X140315364Y-97114690D01*
X140301663Y-97122639D01*
X140292676Y-97132612D01*
X140271530Y-97140123D01*
X140260292Y-97146645D01*
X140249818Y-97149500D01*
X140247273Y-97149500D01*
X140145413Y-97176793D01*
X140141592Y-97178998D01*
X140129609Y-97182265D01*
X140102215Y-97181730D01*
X140074971Y-97184657D01*
X140067784Y-97181058D01*
X140059752Y-97180902D01*
X140037000Y-97165645D01*
X140012495Y-97153376D01*
X140008394Y-97146463D01*
X140001722Y-97141989D01*
X139990827Y-97116848D01*
X139976849Y-97093283D01*
X139975312Y-97081044D01*
X139973941Y-97077880D01*
X139974492Y-97074513D01*
X139973000Y-97062629D01*
X139973000Y-96995698D01*
X139972998Y-96995693D01*
X139959939Y-96964163D01*
X139950500Y-96916711D01*
X139950500Y-94987964D01*
X139970185Y-94920925D01*
X139986819Y-94900283D01*
X140022433Y-94864669D01*
X140060489Y-94826613D01*
X140119799Y-94723886D01*
X140150500Y-94609309D01*
X140150500Y-94490691D01*
X140119799Y-94376114D01*
X140078212Y-94304085D01*
X140061740Y-94236186D01*
X140084592Y-94170159D01*
X140129303Y-94131602D01*
X140180903Y-94105311D01*
X140267811Y-94018403D01*
X140323609Y-93908893D01*
X140338000Y-93818033D01*
X140337999Y-93281968D01*
X140337999Y-93281966D01*
X140337999Y-93281962D01*
X140323610Y-93191111D01*
X140323610Y-93191110D01*
X140323609Y-93191108D01*
X140323609Y-93191107D01*
X140267811Y-93081597D01*
X140267809Y-93081595D01*
X140267806Y-93081591D01*
X140180908Y-92994693D01*
X140180904Y-92994690D01*
X140180903Y-92994689D01*
X140071393Y-92938891D01*
X140071391Y-92938890D01*
X140071388Y-92938889D01*
X139980533Y-92924500D01*
X139419462Y-92924500D01*
X139419462Y-92924501D01*
X139328611Y-92938889D01*
X139328610Y-92938889D01*
X139219095Y-92994690D01*
X139219091Y-92994693D01*
X139132193Y-93081591D01*
X139132190Y-93081595D01*
X139076389Y-93191111D01*
X139062000Y-93281966D01*
X139062000Y-93818037D01*
X139076389Y-93908888D01*
X139076389Y-93908889D01*
X139132190Y-94018404D01*
X139132193Y-94018408D01*
X139219091Y-94105306D01*
X139219094Y-94105308D01*
X139219097Y-94105311D01*
X139270693Y-94131600D01*
X139321490Y-94179574D01*
X139338285Y-94247395D01*
X139329727Y-94287641D01*
X139326359Y-94296165D01*
X139280201Y-94376114D01*
X139249500Y-94490691D01*
X139249500Y-94490739D01*
X139246848Y-94497453D01*
X139229568Y-94519635D01*
X139214929Y-94543652D01*
X139208383Y-94546831D01*
X139203911Y-94552573D01*
X139177376Y-94561893D01*
X139152082Y-94574180D01*
X139144855Y-94573316D01*
X139137989Y-94575728D01*
X139110629Y-94569223D01*
X139082706Y-94565885D01*
X139075191Y-94560798D01*
X139070014Y-94559568D01*
X139063739Y-94553047D01*
X139043839Y-94539578D01*
X138786819Y-94282558D01*
X138753334Y-94221235D01*
X138750500Y-94194877D01*
X138750500Y-92687964D01*
X138770185Y-92620925D01*
X138786819Y-92600283D01*
X138860489Y-92526613D01*
X138919799Y-92423886D01*
X138950500Y-92309309D01*
X138950500Y-92205122D01*
X138959144Y-92175682D01*
X138965667Y-92145697D01*
X138969422Y-92140679D01*
X138970185Y-92138083D01*
X138986812Y-92117447D01*
X139021343Y-92082916D01*
X139082662Y-92049433D01*
X139152354Y-92054417D01*
X139196703Y-92082918D01*
X139219091Y-92105306D01*
X139219095Y-92105309D01*
X139219097Y-92105311D01*
X139328607Y-92161109D01*
X139328609Y-92161109D01*
X139328611Y-92161110D01*
X139356170Y-92165474D01*
X139419467Y-92175500D01*
X139980532Y-92175499D01*
X139980537Y-92175499D01*
X139980537Y-92175498D01*
X140025962Y-92168304D01*
X140071388Y-92161110D01*
X140071389Y-92161110D01*
X140071390Y-92161109D01*
X140071393Y-92161109D01*
X140180903Y-92105311D01*
X140267811Y-92018403D01*
X140323609Y-91908893D01*
X140338000Y-91818033D01*
X140337999Y-91281968D01*
X140337999Y-91281966D01*
X140337999Y-91281962D01*
X140323610Y-91191111D01*
X140323610Y-91191110D01*
X140323609Y-91191108D01*
X140323609Y-91191107D01*
X140267811Y-91081597D01*
X140267809Y-91081595D01*
X140267806Y-91081591D01*
X140180908Y-90994693D01*
X140180904Y-90994690D01*
X140180903Y-90994689D01*
X140071393Y-90938891D01*
X140071391Y-90938890D01*
X140071388Y-90938889D01*
X139980533Y-90924500D01*
X139419462Y-90924500D01*
X139419462Y-90924501D01*
X139328611Y-90938889D01*
X139328610Y-90938889D01*
X139219095Y-90994690D01*
X139219091Y-90994693D01*
X139132193Y-91081591D01*
X139132190Y-91081595D01*
X139076389Y-91191111D01*
X139062000Y-91281966D01*
X139062000Y-91282376D01*
X139061955Y-91282526D01*
X139061617Y-91286830D01*
X139060713Y-91286758D01*
X139042315Y-91349415D01*
X139025681Y-91370057D01*
X138632557Y-91763181D01*
X138571234Y-91796666D01*
X138544876Y-91799500D01*
X138440691Y-91799500D01*
X138343474Y-91825549D01*
X138326106Y-91830203D01*
X138321945Y-91831927D01*
X138252476Y-91839391D01*
X138189998Y-91808113D01*
X138154350Y-91748021D01*
X138150500Y-91717363D01*
X138150500Y-91005121D01*
X138170185Y-90938082D01*
X138186815Y-90917444D01*
X138567440Y-90536818D01*
X138628763Y-90503334D01*
X138655121Y-90500500D01*
X138759306Y-90500500D01*
X138759309Y-90500500D01*
X138873886Y-90469799D01*
X138976613Y-90410489D01*
X139060489Y-90326613D01*
X139119799Y-90223886D01*
X139120050Y-90222947D01*
X139120478Y-90222244D01*
X139122907Y-90216382D01*
X139123821Y-90216760D01*
X139156412Y-90163288D01*
X139219259Y-90132757D01*
X139288634Y-90141050D01*
X139296093Y-90144542D01*
X139328607Y-90161109D01*
X139328609Y-90161109D01*
X139328611Y-90161110D01*
X139356170Y-90165474D01*
X139419467Y-90175500D01*
X139980532Y-90175499D01*
X139980537Y-90175499D01*
X139980537Y-90175498D01*
X140025962Y-90168304D01*
X140071388Y-90161110D01*
X140071389Y-90161110D01*
X140071390Y-90161109D01*
X140071393Y-90161109D01*
X140180903Y-90105311D01*
X140267811Y-90018403D01*
X140323609Y-89908893D01*
X140338000Y-89818033D01*
X140337999Y-89281968D01*
X140337999Y-89281966D01*
X140337999Y-89281962D01*
X140323610Y-89191111D01*
X140323610Y-89191110D01*
X140323609Y-89191108D01*
X140323609Y-89191107D01*
X140267811Y-89081597D01*
X140267809Y-89081595D01*
X140267806Y-89081591D01*
X140180908Y-88994693D01*
X140180904Y-88994690D01*
X140180903Y-88994689D01*
X140071393Y-88938891D01*
X140071391Y-88938890D01*
X140071388Y-88938889D01*
X139980533Y-88924500D01*
X139419462Y-88924500D01*
X139419462Y-88924501D01*
X139328611Y-88938889D01*
X139328610Y-88938889D01*
X139219095Y-88994690D01*
X139219091Y-88994693D01*
X139132193Y-89081591D01*
X139132190Y-89081595D01*
X139076389Y-89191111D01*
X139062000Y-89281966D01*
X139062000Y-89282377D01*
X139061955Y-89282527D01*
X139061617Y-89286830D01*
X139060713Y-89286758D01*
X139042315Y-89349416D01*
X139025681Y-89370058D01*
X138832558Y-89563181D01*
X138771235Y-89596666D01*
X138744877Y-89599500D01*
X138640691Y-89599500D01*
X138526114Y-89630201D01*
X138526112Y-89630201D01*
X138526112Y-89630202D01*
X138423387Y-89689511D01*
X138423384Y-89689513D01*
X138339513Y-89773384D01*
X138339511Y-89773387D01*
X138280201Y-89876114D01*
X138249500Y-89990691D01*
X138249500Y-89990693D01*
X138249500Y-90094876D01*
X138229815Y-90161915D01*
X138213181Y-90182557D01*
X137740661Y-90655076D01*
X137740662Y-90655077D01*
X137687636Y-90708103D01*
X137649500Y-90800170D01*
X137649500Y-90800172D01*
X137649500Y-96200172D01*
X137649500Y-96299828D01*
X137687636Y-96391897D01*
X138064354Y-96768615D01*
X138383559Y-97087819D01*
X138417044Y-97149142D01*
X138412060Y-97218833D01*
X138370189Y-97274767D01*
X138304724Y-97299184D01*
X138295878Y-97299500D01*
X137155123Y-97299500D01*
X137125682Y-97290855D01*
X137095696Y-97284332D01*
X137090680Y-97280577D01*
X137088084Y-97279815D01*
X137067442Y-97263181D01*
X136986819Y-97182558D01*
X136953334Y-97121235D01*
X136950500Y-97094877D01*
X136950500Y-97090693D01*
X136950500Y-97090691D01*
X136919799Y-96976114D01*
X136860489Y-96873387D01*
X136776613Y-96789511D01*
X136673886Y-96730201D01*
X136559309Y-96699500D01*
X136440691Y-96699500D01*
X136326114Y-96730201D01*
X136326112Y-96730201D01*
X136326112Y-96730202D01*
X136223387Y-96789511D01*
X136223384Y-96789513D01*
X136149717Y-96863181D01*
X136088394Y-96896666D01*
X136062036Y-96899500D01*
X134932000Y-96899500D01*
X134864961Y-96879815D01*
X134819206Y-96827011D01*
X134808000Y-96775500D01*
X134808000Y-96635177D01*
X134799268Y-96591282D01*
X134799267Y-96591278D01*
X134784307Y-96568889D01*
X134763430Y-96502214D01*
X134781914Y-96434833D01*
X134784307Y-96431111D01*
X134799267Y-96408722D01*
X134808000Y-96364820D01*
X134808000Y-95335180D01*
X134808000Y-95335177D01*
X134799268Y-95291282D01*
X134799267Y-95291281D01*
X134799267Y-95291278D01*
X134766004Y-95241496D01*
X134766003Y-95241495D01*
X134716224Y-95208234D01*
X134716217Y-95208231D01*
X134672322Y-95199500D01*
X134672320Y-95199500D01*
X134649500Y-95199500D01*
X134582461Y-95179815D01*
X134536706Y-95127011D01*
X134525500Y-95075500D01*
X134525500Y-93594808D01*
X134545185Y-93527769D01*
X134597989Y-93482014D01*
X134667147Y-93472070D01*
X134730703Y-93501095D01*
X134737181Y-93507127D01*
X135036129Y-93806075D01*
X135069614Y-93867398D01*
X135070921Y-93874359D01*
X135076389Y-93908888D01*
X135076389Y-93908889D01*
X135132190Y-94018404D01*
X135132193Y-94018408D01*
X135219091Y-94105306D01*
X135219095Y-94105309D01*
X135219097Y-94105311D01*
X135328607Y-94161109D01*
X135328609Y-94161109D01*
X135328611Y-94161110D01*
X135408614Y-94173781D01*
X135419454Y-94175498D01*
X135419461Y-94175499D01*
X135419467Y-94175500D01*
X135498034Y-94175499D01*
X135522225Y-94177882D01*
X135580690Y-94189511D01*
X135635928Y-94200498D01*
X135635930Y-94200499D01*
X135635931Y-94200499D01*
X135764070Y-94200499D01*
X135764070Y-94200498D01*
X135877774Y-94177882D01*
X135901965Y-94175499D01*
X135980537Y-94175499D01*
X135980537Y-94175498D01*
X136025962Y-94168304D01*
X136071388Y-94161110D01*
X136071389Y-94161110D01*
X136071390Y-94161109D01*
X136071393Y-94161109D01*
X136180903Y-94105311D01*
X136267811Y-94018403D01*
X136323609Y-93908893D01*
X136334230Y-93841837D01*
X136342722Y-93812405D01*
X136347233Y-93801874D01*
X136376465Y-93758127D01*
X136425501Y-93639744D01*
X136430608Y-93614068D01*
X136450500Y-93514069D01*
X136450500Y-92085931D01*
X136450500Y-92085928D01*
X136425502Y-91960261D01*
X136425501Y-91960260D01*
X136425501Y-91960256D01*
X136376465Y-91841873D01*
X136376464Y-91841871D01*
X136376458Y-91841861D01*
X136321398Y-91759457D01*
X136300520Y-91692780D01*
X136300500Y-91690567D01*
X136300500Y-91674773D01*
X136300499Y-91674770D01*
X136294767Y-91660931D01*
X136262364Y-91582703D01*
X136191897Y-91512236D01*
X136128391Y-91485931D01*
X136099829Y-91474100D01*
X136099828Y-91474100D01*
X134749828Y-91474100D01*
X134650172Y-91474100D01*
X134650170Y-91474100D01*
X134558102Y-91512236D01*
X134487636Y-91582702D01*
X134449500Y-91674770D01*
X134449500Y-91765398D01*
X134429815Y-91832437D01*
X134428604Y-91834286D01*
X134423534Y-91841872D01*
X134374499Y-91960255D01*
X134374497Y-91960261D01*
X134349500Y-92085928D01*
X134349500Y-92810036D01*
X134345831Y-92822529D01*
X134346855Y-92835510D01*
X134336176Y-92855409D01*
X134329815Y-92877075D01*
X134319975Y-92885600D01*
X134313818Y-92897076D01*
X134294074Y-92908044D01*
X134277011Y-92922830D01*
X134262722Y-92925461D01*
X134252741Y-92931007D01*
X134228348Y-92931793D01*
X134217556Y-92933781D01*
X134211795Y-92933411D01*
X134155533Y-92924500D01*
X134072990Y-92924500D01*
X134069018Y-92924245D01*
X134067036Y-92923522D01*
X134052770Y-92922117D01*
X133939071Y-92899500D01*
X133939069Y-92899500D01*
X133810931Y-92899500D01*
X133810929Y-92899500D01*
X133697227Y-92922117D01*
X133673036Y-92924500D01*
X133594463Y-92924500D01*
X133594461Y-92924501D01*
X133503611Y-92938889D01*
X133503610Y-92938889D01*
X133394095Y-92994690D01*
X133394091Y-92994693D01*
X133307193Y-93081591D01*
X133307190Y-93081595D01*
X133251389Y-93191111D01*
X133237000Y-93281966D01*
X133237000Y-93410877D01*
X133234617Y-93435069D01*
X133224500Y-93485929D01*
X133224500Y-95081460D01*
X133204815Y-95148499D01*
X133152011Y-95194254D01*
X133124694Y-95203077D01*
X133098781Y-95208231D01*
X133098775Y-95208234D01*
X133048996Y-95241495D01*
X133048995Y-95241496D01*
X133015734Y-95291275D01*
X133015731Y-95291282D01*
X133007000Y-95335177D01*
X133007000Y-95335180D01*
X133007000Y-96364820D01*
X133007000Y-96364822D01*
X133006999Y-96364822D01*
X124200500Y-96364822D01*
X124200500Y-88484108D01*
X125699500Y-88484108D01*
X125699500Y-88615891D01*
X125733608Y-88743187D01*
X125766554Y-88800250D01*
X125799500Y-88857314D01*
X125892686Y-88950500D01*
X126006814Y-89016392D01*
X126134108Y-89050500D01*
X126134110Y-89050500D01*
X126265890Y-89050500D01*
X126265892Y-89050500D01*
X126393186Y-89016392D01*
X126507314Y-88950500D01*
X126600500Y-88857314D01*
X126666392Y-88743186D01*
X126700500Y-88615892D01*
X126700500Y-88484108D01*
X126666392Y-88356814D01*
X126600500Y-88242686D01*
X126507314Y-88149500D01*
X126450250Y-88116554D01*
X126393187Y-88083608D01*
X126329539Y-88066554D01*
X126265892Y-88049500D01*
X126134108Y-88049500D01*
X126006812Y-88083608D01*
X125892686Y-88149500D01*
X125892683Y-88149502D01*
X125799502Y-88242683D01*
X125799500Y-88242686D01*
X125733608Y-88356812D01*
X125699500Y-88484108D01*
X124200500Y-88484108D01*
X124200500Y-82443713D01*
X125349500Y-82443713D01*
X125349500Y-82656286D01*
X125379185Y-82843713D01*
X125382754Y-82866243D01*
X125444503Y-83056287D01*
X125448444Y-83068414D01*
X125544951Y-83257820D01*
X125669890Y-83429786D01*
X125820213Y-83580109D01*
X125992179Y-83705048D01*
X125992181Y-83705049D01*
X125992184Y-83705051D01*
X126181588Y-83801557D01*
X126383757Y-83867246D01*
X126593713Y-83900500D01*
X126593714Y-83900500D01*
X126806286Y-83900500D01*
X126806287Y-83900500D01*
X127016243Y-83867246D01*
X127218412Y-83801557D01*
X127407816Y-83705051D01*
X127429789Y-83689086D01*
X127485593Y-83648543D01*
X138159499Y-83648543D01*
X138197947Y-83841829D01*
X138197950Y-83841839D01*
X138273364Y-84023907D01*
X138273371Y-84023920D01*
X138382860Y-84187781D01*
X138382863Y-84187785D01*
X138522214Y-84327136D01*
X138522218Y-84327139D01*
X138686079Y-84436628D01*
X138686092Y-84436635D01*
X138868160Y-84512049D01*
X138868165Y-84512051D01*
X138868169Y-84512051D01*
X138868170Y-84512052D01*
X139061456Y-84550500D01*
X139061459Y-84550500D01*
X139258543Y-84550500D01*
X139388582Y-84524632D01*
X139451835Y-84512051D01*
X139633914Y-84436632D01*
X139797782Y-84327139D01*
X139937139Y-84187782D01*
X140046632Y-84023914D01*
X140122051Y-83841835D01*
X140134632Y-83778582D01*
X140160500Y-83648543D01*
X140699499Y-83648543D01*
X140737947Y-83841829D01*
X140737950Y-83841839D01*
X140813364Y-84023907D01*
X140813371Y-84023920D01*
X140922860Y-84187781D01*
X140922863Y-84187785D01*
X141062214Y-84327136D01*
X141062218Y-84327139D01*
X141226079Y-84436628D01*
X141226092Y-84436635D01*
X141408160Y-84512049D01*
X141408165Y-84512051D01*
X141408169Y-84512051D01*
X141408170Y-84512052D01*
X141601456Y-84550500D01*
X141601459Y-84550500D01*
X141798543Y-84550500D01*
X141928582Y-84524632D01*
X141991835Y-84512051D01*
X142173914Y-84436632D01*
X142337782Y-84327139D01*
X142477139Y-84187782D01*
X142586632Y-84023914D01*
X142662051Y-83841835D01*
X142674632Y-83778582D01*
X142700500Y-83648543D01*
X143239499Y-83648543D01*
X143277947Y-83841829D01*
X143277950Y-83841839D01*
X143353364Y-84023907D01*
X143353371Y-84023920D01*
X143462860Y-84187781D01*
X143462863Y-84187785D01*
X143602214Y-84327136D01*
X143602218Y-84327139D01*
X143766079Y-84436628D01*
X143766092Y-84436635D01*
X143948160Y-84512049D01*
X143948165Y-84512051D01*
X143948169Y-84512051D01*
X143948170Y-84512052D01*
X144141456Y-84550500D01*
X144141459Y-84550500D01*
X144338543Y-84550500D01*
X144468582Y-84524632D01*
X144531835Y-84512051D01*
X144713914Y-84436632D01*
X144877782Y-84327139D01*
X145017139Y-84187782D01*
X145126632Y-84023914D01*
X145202051Y-83841835D01*
X145214632Y-83778582D01*
X145240500Y-83648543D01*
X145240500Y-83451456D01*
X145202052Y-83258170D01*
X145202051Y-83258169D01*
X145202051Y-83258165D01*
X145201908Y-83257820D01*
X145126635Y-83076092D01*
X145126628Y-83076079D01*
X145017139Y-82912218D01*
X145017136Y-82912214D01*
X144877785Y-82772863D01*
X144877781Y-82772860D01*
X144713920Y-82663371D01*
X144713907Y-82663364D01*
X144531839Y-82587950D01*
X144531829Y-82587947D01*
X144338543Y-82549500D01*
X144338541Y-82549500D01*
X144141459Y-82549500D01*
X144141457Y-82549500D01*
X143948170Y-82587947D01*
X143948160Y-82587950D01*
X143766092Y-82663364D01*
X143766079Y-82663371D01*
X143602218Y-82772860D01*
X143602214Y-82772863D01*
X143462863Y-82912214D01*
X143462860Y-82912218D01*
X143353371Y-83076079D01*
X143353364Y-83076092D01*
X143277950Y-83258160D01*
X143277947Y-83258170D01*
X143239500Y-83451456D01*
X143239500Y-83451459D01*
X143239500Y-83648541D01*
X143239500Y-83648543D01*
X143239499Y-83648543D01*
X142700500Y-83648543D01*
X142700500Y-83451456D01*
X142662052Y-83258170D01*
X142662051Y-83258169D01*
X142662051Y-83258165D01*
X142661908Y-83257820D01*
X142586635Y-83076092D01*
X142586628Y-83076079D01*
X142477139Y-82912218D01*
X142477136Y-82912214D01*
X142337785Y-82772863D01*
X142337781Y-82772860D01*
X142173920Y-82663371D01*
X142173907Y-82663364D01*
X141991839Y-82587950D01*
X141991829Y-82587947D01*
X141798543Y-82549500D01*
X141798541Y-82549500D01*
X141601459Y-82549500D01*
X141601457Y-82549500D01*
X141408170Y-82587947D01*
X141408160Y-82587950D01*
X141226092Y-82663364D01*
X141226079Y-82663371D01*
X141062218Y-82772860D01*
X141062214Y-82772863D01*
X140922863Y-82912214D01*
X140922860Y-82912218D01*
X140813371Y-83076079D01*
X140813364Y-83076092D01*
X140737950Y-83258160D01*
X140737947Y-83258170D01*
X140699500Y-83451456D01*
X140699500Y-83451459D01*
X140699500Y-83648541D01*
X140699500Y-83648543D01*
X140699499Y-83648543D01*
X140160500Y-83648543D01*
X140160500Y-83451456D01*
X140122052Y-83258170D01*
X140122051Y-83258169D01*
X140122051Y-83258165D01*
X140121908Y-83257820D01*
X140046635Y-83076092D01*
X140046628Y-83076079D01*
X139937139Y-82912218D01*
X139937136Y-82912214D01*
X139797785Y-82772863D01*
X139797781Y-82772860D01*
X139633920Y-82663371D01*
X139633907Y-82663364D01*
X139451839Y-82587950D01*
X139451829Y-82587947D01*
X139258543Y-82549500D01*
X139258541Y-82549500D01*
X139061459Y-82549500D01*
X139061457Y-82549500D01*
X138868170Y-82587947D01*
X138868160Y-82587950D01*
X138686092Y-82663364D01*
X138686079Y-82663371D01*
X138522218Y-82772860D01*
X138522214Y-82772863D01*
X138382863Y-82912214D01*
X138382860Y-82912218D01*
X138273371Y-83076079D01*
X138273364Y-83076092D01*
X138197950Y-83258160D01*
X138197947Y-83258170D01*
X138159500Y-83451456D01*
X138159500Y-83451459D01*
X138159500Y-83648541D01*
X138159500Y-83648543D01*
X138159499Y-83648543D01*
X127485593Y-83648543D01*
X127579786Y-83580109D01*
X127579788Y-83580106D01*
X127579792Y-83580104D01*
X127730104Y-83429792D01*
X127855051Y-83257816D01*
X127951557Y-83068412D01*
X128017246Y-82866243D01*
X128050500Y-82656287D01*
X128050500Y-82443713D01*
X128017246Y-82233757D01*
X127951557Y-82031588D01*
X127855051Y-81842184D01*
X127855049Y-81842181D01*
X127855048Y-81842179D01*
X127730109Y-81670213D01*
X127579786Y-81519890D01*
X127407820Y-81394951D01*
X127218414Y-81298444D01*
X127218413Y-81298443D01*
X127218412Y-81298443D01*
X127016243Y-81232754D01*
X127016241Y-81232753D01*
X127016240Y-81232753D01*
X126854957Y-81207208D01*
X126806287Y-81199500D01*
X126593713Y-81199500D01*
X126545042Y-81207208D01*
X126383760Y-81232753D01*
X126181585Y-81298444D01*
X125992179Y-81394951D01*
X125820213Y-81519890D01*
X125669890Y-81670213D01*
X125544951Y-81842179D01*
X125448444Y-82031585D01*
X125382753Y-82233760D01*
X125349500Y-82443713D01*
X124200500Y-82443713D01*
X124200500Y-80174500D01*
X124220185Y-80107461D01*
X124272989Y-80061706D01*
X124324500Y-80050500D01*
X156575500Y-80050500D01*
X156642539Y-80070185D01*
G37*
%TD.AperFunction*%
%TD*%
M02*
