M48
; DRILL file {KiCad 9.0.3} date 2025-08-01T20:52:17+0530
; FORMAT={-:-/ absolute / metric / decimal}
; #@! TF.CreationDate,2025-08-01T20:52:17+05:30
; #@! TF.GenerationSoftware,Kicad,Pcbnew,9.0.3
; #@! TF.FileFunction,Plated,1,2,PTH
FMAT,2
METRIC
; #@! TA.AperFunction,Plated,PTH,ViaDrill
T1C0.300
; #@! TA.AperFunction,Plated,PTH,ComponentDrill
T2C1.000
%
G90
G05
T1
X133.45Y-84.3
X133.45Y-85.55
X134.2Y-83.55
X134.2Y-86.3
X134.9Y-104.65
X134.95Y-103.5
X135.0Y-92.15
X135.2Y-83.55
X135.2Y-86.3
X135.8Y-92.15
X136.5Y-97.15
X137.1Y-102.15
X137.2Y-99.85
X137.7Y-99.35
X138.01Y-104.66
X138.188Y-103.35
X138.2Y-102.05
X138.35Y-98.7
X138.4Y-99.35
X138.4Y-99.95
X138.5Y-92.25
X138.7Y-90.05
X139.7Y-94.55
X142.5Y-91.75
X142.5Y-92.55
X142.5Y-93.35
X143.95Y-94.55
X143.95Y-95.8
T2
X135.72Y-106.95
X136.62Y-83.55
X138.26Y-106.95
X139.16Y-83.55
X140.8Y-106.95
X141.7Y-83.55
X144.24Y-83.55
X146.78Y-83.55
M30
